<?xml version="1.0" encoding="UTF-8" standalone="no"?>
<!DOCTYPE svg PUBLIC "-//W3C//DTD SVG 1.1//EN" "http://www.w3.org/Graphics/SVG/1.1/DTD/svg11.dtd">

<!-- Created with Vectornator (http://vectornator.io/) -->
<svg height="100%" stroke-miterlimit="10" style="fill-rule:nonzero;clip-rule:evenodd;stroke-linecap:round;stroke-linejoin:round;" version="1.1" viewBox="0 0 1080 1080" width="100%" xml:space="preserve" xmlns="http://www.w3.org/2000/svg" xmlns:vectornator="http://vectornator.io" xmlns:xlink="http://www.w3.org/1999/xlink">
<metadata>
<vectornator:setting key="IsTimeLapseWatermarkDisabled" value="false"/>
<vectornator:setting key="UndoHistoryDisabled" value="true"/>
<vectornator:setting key="VNDimensionsVisible" value="true"/>
<vectornator:setting key="VNSnapToGuides" value="true"/>
<vectornator:setting key="WDCMYKEnabledKey" value="false"/>
<vectornator:setting key="WDDisplayWhiteBackground" value="false"/>
<vectornator:setting key="WDDynamicGuides" value="true"/>
<vectornator:setting key="WDGuidesVisible" value="false"/>
<vectornator:setting key="WDIsolateActiveLayer" value="false"/>
<vectornator:setting key="WDOutlineMode" value="false"/>
<vectornator:setting key="WDRulersVisible" value="true"/>
<vectornator:setting key="WDSnapToEdges" value="true"/>
<vectornator:setting key="WDSnapToGrid" value="false"/>
<vectornator:setting key="WDSnapToPoints" value="true"/>
<vectornator:setting key="WDUnits" value="Pixels"/>
</metadata>
<defs/>
<g id="Calque-1" vectornator:layerName="Calque 1">
<path d="M0 0L1080 0L1080 1080L0 1080L0 0Z" fill="#ecbf65" fill-rule="evenodd" opacity="1" stroke="none"/>
<path d="M293.485 156.779L295.581 176.836" fill="#384c73" fill-rule="evenodd" opacity="1" stroke="none"/>
<path d="M250.259 175.884L252.123 158.043" fill="#384c73" fill-rule="evenodd" opacity="1" stroke="none"/>
<path d="M928.59 115.724L819.497 334.175L838.649 322.991L922.309 278.103L1001.47 326.957L1001.47 327.018L1021.72 339.889L928.59 115.724Z" fill="#e8954f" fill-rule="evenodd" opacity="1" stroke="none"/>
<path d="M292.3 554.257C292.3 554.257 242.864 634.478 333.217 714.714C293.003 711.927 87.4257 737.204 87.4257 737.204C87.4257 737.204 57.2029 690.3 62.6937 622.511C64.2235 603.625 73.029 583.033 80.5599 561.485C91.2408 530.925 242.309 554.085 292.3 554.257Z" fill="#f3dfcf" fill-rule="evenodd" opacity="1" stroke="none"/>
<path d="M356.339 189.739L240.607 189.943L222.692 461.817C223.907 462.076 224.853 462.178 226.051 462.427L225.848 465.786C273.155 478.815 313.133 478.815 374.152 465.786L358.069 221.09L356.339 189.739Z" fill="#1d1a17" fill-rule="evenodd" opacity="1" stroke="none"/>
<path d="M866.791 838.289C754.936 869.438 663.915 747.132 754.344 754.324C930.471 768.331 1014.46 610.519 1014.46 610.519C1014.46 610.519 1033.07 744.048 932.862 812.461C915.325 824.434 892.228 831.205 866.791 838.289Z" fill="#f3dfcf" fill-rule="evenodd" opacity="1" stroke="none"/>
<path d="M296.767 315.456L296.767 315.456C309.665 315.456 320.121 325.912 320.121 338.81L320.121 399.822C320.121 412.72 309.665 423.175 296.767 423.175L296.767 423.175C283.869 423.175 273.414 412.72 273.414 399.822L273.414 338.81C273.414 325.912 283.869 315.456 296.767 315.456Z" fill="#e8954f" fill-rule="evenodd" opacity="0" stroke="none"/>
<path d="M214.016 377.549L379.518 377.549C388.218 377.549 395.271 384.601 395.271 393.301L395.271 457.911C395.271 466.611 388.218 473.664 379.518 473.664L214.016 473.664C205.316 473.664 198.263 466.611 198.263 457.911L198.263 393.301C198.263 384.601 205.316 377.549 214.016 377.549Z" fill="#1d1a17" fill-rule="evenodd" opacity="1" stroke="none"/>
<path d="M271.813 411.274C426.548 389.488 573.682 515.096 693.295 663.935C771.443 761.177 866.721 822.279 927.11 814.202C758.031 914.552 595.964 826.18 521.372 778.696C377.145 686.884 320.508 590.866 156.133 580.224C81.6177 575.4 62.4709 622.808 62.4709 622.808C62.4709 622.808 71.2243 439.516 271.813 411.274Z" fill="#e8954f" fill-rule="evenodd" opacity="1" stroke="none"/>
<path d="M67.7735 915.379L172.777 915.379L172.777 942.984L137.547 942.984L137.547 1027.17L103.004 1027.17L103.004 942.984L67.7735 942.984L67.7735 915.379Z" fill="#1d1a17" fill-rule="evenodd" opacity="1" stroke="none"/>
<path d="M240.843 1027.17L240.843 915.379L298.416 915.379C309.092 915.379 317.251 916.294 322.894 918.124C328.537 919.955 333.087 923.348 336.544 928.305C340.001 933.261 341.729 939.298 341.729 946.415C341.729 952.617 340.407 957.968 337.764 962.467C335.12 966.966 331.485 970.614 326.859 973.41C323.911 975.189 319.869 976.663 314.735 977.833C318.852 979.205 321.852 980.578 323.733 981.95C325.004 982.865 326.847 984.823 329.261 987.822C331.676 990.821 333.29 993.134 334.104 994.761L350.803 1027.17L311.761 1027.17L293.307 993.007C290.968 988.585 288.884 985.712 287.054 984.391C284.563 982.662 281.741 981.798 278.59 981.798L275.539 981.798L275.539 1027.17L240.843 1027.17ZM275.539 960.675L290.104 960.675C291.68 960.675 294.73 960.167 299.255 959.15C301.542 958.692 303.411 957.523 304.86 955.642C306.308 953.761 307.033 951.601 307.033 949.16C307.033 945.551 305.889 942.78 303.601 940.849C301.314 938.917 297.018 937.951 290.714 937.951L275.539 937.951L275.539 960.675Z" fill="#1d1a17" fill-rule="evenodd" opacity="1" stroke="none"/>
<path d="M482.619 1008.72L443.271 1008.72L437.857 1027.17L402.55 1027.17L444.567 915.379L482.237 915.379L524.254 1027.17L488.109 1027.17L482.619 1008.72ZM475.374 984.543L463.021 944.356L450.744 984.543L475.374 984.543Z" fill="#1d1a17" fill-rule="evenodd" opacity="1" stroke="none"/>
<path d="M567.613 915.379L603.758 915.379L628.923 995.829L653.706 915.379L688.783 915.379L647.3 1027.17L609.859 1027.17L567.613 915.379Z" fill="#1d1a17" fill-rule="evenodd" opacity="1" stroke="none"/>
<path d="M752.045 915.379L844.619 915.379L844.619 939.247L786.665 939.247L786.665 957.015L840.425 957.015L840.425 979.815L786.665 979.815L786.665 1001.85L846.296 1001.85L846.296 1027.17L752.045 1027.17L752.045 915.379Z" fill="#1d1a17" fill-rule="evenodd" opacity="1" stroke="none"/>
<path d="M916.879 915.379L951.422 915.379L951.422 999.642L1005.33 999.642L1005.33 1027.17L916.879 1027.17L916.879 915.379Z" fill="#1d1a17" fill-rule="evenodd" opacity="1" stroke="none"/>
<path d="M705.692 34.1096C579.694 34.1096 477.524 136.28 477.524 262.278C477.524 388.276 579.694 490.446 705.692 490.446C831.691 490.446 933.772 388.276 933.772 262.278C933.772 242.337 930.976 223.074 926.17 204.639C926.176 205.233 926.258 205.812 926.258 206.407C926.258 297.391 852.547 371.102 761.563 371.102C670.58 371.102 596.78 297.391 596.78 206.407C596.78 115.424 670.58 41.6238 761.563 41.6238C762.072 41.6238 762.558 41.7076 763.066 41.7123C744.695 36.942 725.556 34.1096 705.692 34.1096Z" fill="#1d1a17" fill-rule="evenodd" opacity="1" stroke="none"/>
<path d="M61.8819 861.415C61.8819 844.611 74.4978 757.981 91.5274 736.532C109.052 714.461 131.915 736.872 155.42 712.017C186.851 678.782 215.341 632.241 239.996 632.241C239.996 632.241 246.476 647.547 262.462 657.998C272.427 664.514 279.62 695.542 279.62 695.542C279.62 695.542 318.787 666.33 332.51 683.931C333.322 684.972 347.637 686.03 348.465 687.101C361.648 704.145 364.281 723.604 375.295 736.532C444.343 817.586 588.688 861.415 588.688 861.415L61.8819 861.415Z" fill="#1d1a17" fill-rule="evenodd" opacity="1" stroke="none"/>
<path d="M242.302 632.241C242.302 632.241 248.782 647.547 264.768 657.998C274.733 664.514 281.926 694.06 281.926 694.06C281.926 694.06 281.926 708.451 278.457 709.384C274.3 710.503 271.155 731.056 271.194 739.686C271.243 750.372 255.935 713.836 261.399 712.064C267.348 710.135 260.582 679.788 255.019 681.366C240.463 685.494 224.57 661.722 242.302 632.241Z" fill="#e8954f" fill-rule="evenodd" opacity="1" stroke="none"/>
<path d="M332.51 683.931C333.322 684.972 347.637 686.03 348.465 687.101C361.648 704.145 364.002 721.951 375.295 736.532C383.317 746.891 392.487 754.206 397.153 758.832C410.83 772.392 364.189 756.986 345.559 779.606C339.435 787.041 355.635 722.667 332.064 723.024C323.521 723.154 330.494 681.345 332.51 683.931Z" fill="#e8954f" fill-rule="evenodd" opacity="1" stroke="none"/>
<path d="M407.699 771.556C414.217 775.128 414.012 775.397 411.26 776.947C395.312 785.924 379.073 789.566 363.209 788.522C355.588 788.021 357.475 803.322 354.658 802.237C351.612 801.064 350.906 802.941 351.525 788.088C351.882 779.551 401.182 767.985 407.699 771.556Z" fill="#e8954f" fill-rule="evenodd" opacity="1" stroke="none"/>
<path d="M271.252 748.297C277.769 751.868 277.565 752.137 274.812 753.687C272.357 755.069 270.136 757.278 267.428 757.456C263.918 757.687 254.314 750.246 259.903 748.156C265.08 746.22 269.635 747.411 271.252 748.297Z" fill="#e8954f" fill-rule="evenodd" opacity="1" stroke="none"/>
<path d="M298.147 119.835C282.713 119.835 270.124 132.424 270.124 147.858C270.124 163.291 282.713 175.745 298.147 175.745C313.58 175.745 326.034 163.291 326.034 147.858C326.034 132.424 313.58 119.835 298.147 119.835Z" fill="#1d1a17" fill-rule="evenodd" opacity="1" stroke="none"/>
<path d="M298.147 134.799C305.428 134.799 311.206 140.671 311.206 147.858C311.206 155.045 305.427 160.917 298.147 160.917C290.866 160.917 284.951 155.045 284.951 147.858C284.951 140.671 290.866 134.799 298.147 134.799Z" fill="#e8954f" fill-rule="evenodd" opacity="1" stroke="none"/>
<path d="M258.979 108.963L258.979 185.64L242.693 185.64L242.693 108.963L258.979 108.963Z" fill="#1d1a17" fill-rule="evenodd" opacity="1" stroke="none"/>
<path d="M353.769 108.811L353.769 185.64L337.483 185.64L337.483 108.811L353.769 108.811Z" fill="#1d1a17" fill-rule="evenodd" opacity="1" stroke="none"/>
<path d="M367.06 104.563L367.06 104.718C367.06 108.942 363.635 112.366 359.412 112.366L236.225 112.366C232.001 112.366 228.577 108.942 228.577 104.718L228.577 104.563C228.577 100.339 232.001 96.9153 236.225 96.9153L359.412 96.9153C363.635 96.9153 367.06 100.339 367.06 104.563Z" fill="#1d1a17" fill-rule="evenodd" opacity="1" stroke="none"/>
<path d="M305.964 172.972L305.964 185.985C305.964 190.209 302.54 193.633 298.316 193.633L298.161 193.633C293.937 193.633 290.513 190.209 290.513 185.985L290.513 172.972C290.513 168.749 293.937 165.324 298.161 165.324L298.316 165.324C302.54 165.324 305.964 168.749 305.964 172.972Z" fill="#1d1a17" fill-rule="evenodd" opacity="1" stroke="none"/>
<path d="M237.891 103.18C237.891 69.5573 265.147 42.3006 298.77 42.3006C332.393 42.3006 359.65 69.5573 359.65 103.18L237.891 103.18Z" fill="#1d1a17" fill-rule="evenodd" opacity="1" stroke="none"/>
<path d="M367.97 188.437L367.97 188.591C367.97 192.815 364.546 196.239 360.322 196.239L237.136 196.239C232.912 196.239 229.488 192.815 229.488 188.591L229.488 188.437C229.488 184.213 232.912 180.789 237.136 180.789L360.322 180.789C364.546 180.789 367.97 184.213 367.97 188.437Z" fill="#1d1a17" fill-rule="evenodd" opacity="1" stroke="none"/>
<path d="M305.557 32.0677L305.557 45.0803C305.557 49.3042 302.133 52.7283 297.909 52.7283L297.754 52.7283C293.531 52.7283 290.106 49.3042 290.106 45.0803L290.106 32.0677C290.106 27.8438 293.531 24.4197 297.754 24.4197L297.909 24.4197C302.133 24.4197 305.557 27.8438 305.557 32.0677Z" fill="#1d1a17" fill-rule="evenodd" opacity="1" stroke="none"/>
<path d="M242.911 224.674L249.12 224.674C250.072 224.674 250.844 225.446 250.844 226.398L250.844 226.398C250.844 227.35 250.072 228.122 249.12 228.122L242.911 228.122C241.959 228.122 241.187 227.35 241.187 226.398L241.187 226.398C241.187 225.446 241.959 224.674 242.911 224.674Z" fill="#ecbf65" fill-rule="evenodd" opacity="0" stroke="none"/>
<path d="M243.911 215.779L254.891 215.779C255.843 215.779 256.614 216.551 256.614 217.503L256.614 217.503C256.614 218.455 255.843 219.227 254.891 219.227L243.911 219.227C242.959 219.227 242.187 218.455 242.187 217.503L242.187 217.503C242.187 216.551 242.959 215.779 243.911 215.779Z" fill="#ecbf65" fill-rule="evenodd" opacity="0" stroke="none"/>
<path d="M244.782 206.884L259.05 206.884C260.002 206.884 260.774 207.656 260.774 208.608L260.774 208.608C260.774 209.56 260.002 210.332 259.05 210.332L244.782 210.332C243.83 210.332 243.059 209.56 243.059 208.608L243.059 208.608C243.059 207.656 243.83 206.884 244.782 206.884Z" fill="#ecbf65" fill-rule="evenodd" opacity="0" stroke="none"/>
<path d="M245.632 197.989L283.989 197.989C284.941 197.989 285.713 198.761 285.713 199.713L285.713 199.713C285.713 200.665 284.941 201.437 283.989 201.437L245.632 201.437C244.68 201.437 243.909 200.665 243.909 199.713L243.909 199.713C243.909 198.761 244.68 197.989 245.632 197.989Z" fill="#ecbf65" fill-rule="evenodd" opacity="0" stroke="none"/>
<path d="M775.487 745.973C834.296 791.138 893.433 815.909 934.11 810.469C874.513 841.323 775.487 745.973 775.487 745.973Z" fill="#dea779" fill-rule="evenodd" opacity="0" stroke="none"/>
<path d="M303.636 358.094C303.636 355.31 305.893 353.052 308.677 353.052C311.462 353.052 313.719 355.31 313.719 358.094C313.719 360.878 311.462 363.135 308.677 363.135C305.893 363.135 303.636 360.878 303.636 358.094Z" fill="#1d1a17" fill-rule="evenodd" opacity="1" stroke="none"/>
<path d="M278.338 334.372L289.318 334.372C290.27 334.372 291.042 335.144 291.042 336.096L291.042 336.096C291.042 337.048 290.27 337.82 289.318 337.82L278.338 337.82C277.386 337.82 276.614 337.048 276.614 336.096L276.614 336.096C276.614 335.144 277.386 334.372 278.338 334.372Z" fill="#1d1a17" fill-rule="evenodd" opacity="0" stroke="none"/>
<path d="M280.771 327.477L287.318 327.477C288.27 327.477 289.042 328.249 289.042 329.201L289.042 329.201C289.042 330.153 288.27 330.925 287.318 330.925L280.771 330.925C279.819 330.925 279.047 330.153 279.047 329.201L279.047 329.201C279.047 328.249 279.819 327.477 280.771 327.477Z" fill="#1d1a17" fill-rule="evenodd" opacity="0" stroke="none"/>
</g>
</svg>
