<?xml version="1.0" encoding="UTF-8" standalone="no"?>
<svg
   xmlns:serif="http://www.serif.com/"
   xmlns:dc="http://purl.org/dc/elements/1.1/"
   xmlns:cc="http://creativecommons.org/ns#"
   xmlns:rdf="http://www.w3.org/1999/02/22-rdf-syntax-ns#"
   xmlns:svg="http://www.w3.org/2000/svg"
   xmlns="http://www.w3.org/2000/svg"
   xmlns:sodipodi="http://sodipodi.sourceforge.net/DTD/sodipodi-0.dtd"
   xmlns:inkscape="http://www.inkscape.org/namespaces/inkscape"
   width="100%"
   height="100%"
   viewBox="0 0 1371 1424"
   version="1.1"
   xml:space="preserve"
   style="fill-rule:evenodd;clip-rule:evenodd;stroke-linejoin:round;stroke-miterlimit:2;"
   id="svg28"
   sodipodi:docname="IC_travel_logo.svg"
   inkscape:version="0.92.4 (5da689c313, 2019-01-14)"><metadata
   id="metadata34"><rdf:RDF><cc:Work
       rdf:about=""><dc:format>image/svg+xml</dc:format><dc:type
         rdf:resource="http://purl.org/dc/dcmitype/StillImage" /><dc:title></dc:title></cc:Work></rdf:RDF></metadata><defs
   id="defs32">
            
            
            
            
            
            
        </defs><sodipodi:namedview
   pagecolor="#ffffff"
   bordercolor="#666666"
   borderopacity="1"
   objecttolerance="10"
   gridtolerance="10"
   guidetolerance="10"
   inkscape:pageopacity="0"
   inkscape:pageshadow="2"
   inkscape:window-width="1920"
   inkscape:window-height="1017"
   id="namedview30"
   showgrid="false"
   inkscape:zoom="0.46875618"
   inkscape:cx="1004.7647"
   inkscape:cy="787.4685"
   inkscape:window-x="1912"
   inkscape:window-y="-8"
   inkscape:window-maximized="1"
   inkscape:current-layer="path823" />
    <g
   id="Plan-de-travail1"
   serif:id="Plan de travail1"
   transform="matrix(0.91502,0,0,1,25.6206,-1.23889e-06)">
        
        <clipPath
   id="_clip1">
            <rect
   x="-28"
   y="0"
   width="1498"
   height="1424"
   id="rect4" />
        </clipPath>
        <g
   id="g872"><rect
     id="rect2"
     style="fill:none;"
     height="1424"
     width="1498"
     y="0"
     x="-28" /><g
     id="path829"
     transform="matrix(1.57352,0,0,1.4398,327.596,67.7596)">
                <path
   d="m -165.737,941.195 c -0.988,-0.398 -1.25,-20.116 -1.25,-93.885 0,-92.726 -0.014,-93.39 -2.024,-94.465 -1.315,-0.704 -9.936,-1.015 -24.6,-0.888 -18.401,0.16 -22.739,-0.063 -23.461,-1.202 -1.508,-2.382 -1.128,-23.476 0.446,-24.782 0.988,-0.82 18.63,-1.06 64.25,-0.873 l 62.889,0.258 0.282,12.418 c 0.155,6.829 -0.077,12.777 -0.517,13.216 -0.439,0.439 -11.179,0.854 -23.867,0.921 -12.687,0.068 -23.602,0.453 -24.254,0.855 -0.9,0.557 -1.178,22.911 -1.155,92.958 0.021,62.285 -0.309,92.86 -1.014,94.179 -0.95,1.774 -2.118,1.946 -12.76,1.874 -6.444,-0.043 -12.278,-0.306 -12.965,-0.584 z m 107,0 c -0.989,-0.399 -1.25,-22.919 -1.25,-107.902 V 725.896 l 2.322,-0.583 c 1.277,-0.321 16.915,-0.417 34.75,-0.215 l 32.428,0.369 8,3.03 c 22.095,8.37 40.383,27.731 46.625,49.357 1.436,4.979 1.875,9.787 1.875,20.569 0,16.082 -0.944,20.368 -7.346,33.376 -4.981,10.12 -16.145,22.503 -27.328,30.31 -4.323,3.019 -7.326,5.827 -7.326,6.851 0,0.955 3.988,7.735 8.863,15.067 27.545,41.426 36.068,55.209 34.963,56.54 -0.859,1.036 -4.454,1.279 -15.72,1.067 l -14.606,-0.276 -8.144,-12.5 c -4.479,-6.875 -9.708,-14.975 -11.621,-18 -7.89,-12.48 -16.089,-25.678 -17.611,-28.35 -0.893,-1.568 -2.875,-4.619 -4.403,-6.781 l -2.778,-3.93 -24.443,0.561 -0.264,33.414 c -0.178,22.624 -0.622,33.845 -1.372,34.75 -0.817,0.983 -4.177,1.315 -12.737,1.257 -6.395,-0.043 -12.19,-0.306 -12.877,-0.583 z M 8.259,841.721 C 22.927,836.71 35.285,822.812 38.036,808.235 39.646,799.7 38.791,789.093 35.837,780.961 32.483,771.729 23.4,762.148 13.24,757.123 l -7.614,-3.765 h -37.113 l -0.261,44 c -0.144,24.2 -0.045,44.562 0.218,45.25 0.357,0.93 4.708,1.25 17.007,1.25 14.262,0 17.385,-0.293 22.782,-2.137 z m 79.11,98.622 c -0.32,-0.834 -0.331,-2.296 -0.023,-3.25 1.945,-6.05 7.315,-21.033 12.629,-35.235 7.534,-20.14 10.447,-28.107 14.073,-38.5 1.536,-4.4 5.772,-16.1 9.414,-26 3.643,-9.9 9.056,-24.75 12.029,-33 7.985,-22.157 10.636,-29.465 16.508,-45.5 2.92,-7.975 6.68,-18.325 8.355,-23 1.676,-4.675 3.464,-9.063 3.975,-9.75 1.011,-1.36 12.372,-1.744 14.323,-0.485 0.99,0.639 4.876,10.641 17.381,44.735 1.613,4.4 5.912,16.1 9.552,26 3.64,9.9 8.124,22.275 9.964,27.5 8.733,24.798 19.698,54.968 23.443,64.5 2.022,5.147 11.164,30.388 15.673,43.273 1.399,4 2.29,7.937 1.978,8.75 -0.754,1.965 -24.337,2.163 -26.903,0.227 -0.911,-0.688 -3.989,-7.775 -6.84,-15.75 -4.735,-13.247 -7.826,-21.808 -14.44,-40 -5.899,-16.223 -7.233,-19.302 -8.729,-20.139 -0.879,-0.492 -13.87,-0.774 -28.87,-0.628 l -27.272,0.267 -1.292,2.499 c -0.711,1.375 -5.809,15.1 -11.329,30.501 -13.8,38.494 -15.094,41.822 -16.823,43.249 -1.03,0.851 -5.456,1.25 -13.854,1.25 -10.101,0 -12.446,-0.274 -12.922,-1.514 z M 189.742,835.462 c 0.687,-0.688 -0.092,-3.176 -5.198,-16.604 -1.987,-5.225 -4.545,-12.425 -5.685,-16 -2.467,-7.74 -5.522,-14 -6.831,-14 -0.52,0 -1.358,0.787 -1.862,1.75 -1.186,2.263 -7.36,18.737 -12.274,32.75 -3.506,9.998 -3.708,11.111 -2.222,12.217 1.175,0.874 6.113,1.115 17.55,0.855 8.754,-0.199 16.188,-0.634 16.522,-0.968 z m 156.092,105.72 c -0.973,-0.257 -2.51,-2.832 -3.661,-6.134 -5.398,-15.495 -14.462,-40.719 -17.676,-49.19 -1.982,-5.225 -4.897,-13.1 -6.477,-17.5 -1.581,-4.4 -4.005,-11.15 -5.387,-15 -5.828,-16.233 -17.331,-47.888 -19.624,-54 -1.032,-2.75 -3.739,-10.175 -6.016,-16.5 -2.277,-6.325 -5.191,-14.2 -6.475,-17.5 -6.735,-17.302 -12.58,-35.046 -12.31,-37.371 l 0.305,-2.629 11.5,-0.291 c 6.325,-0.159 12.448,-0.054 13.607,0.234 1.614,0.401 2.87,2.691 5.371,9.79 1.795,5.097 4.3,11.967 5.567,15.267 1.267,3.3 4.561,12.3 7.32,20 2.76,7.7 7.114,19.625 9.675,26.5 2.562,6.875 5.27,14.3 6.018,16.5 6.942,20.408 22.374,61.713 23.616,63.21 1.636,1.971 2.548,0.646 5.723,-8.308 3.635,-10.249 12.116,-33.58 16.141,-44.402 1.739,-4.675 4.745,-13 6.68,-18.5 6.015,-17.095 8.038,-22.686 11.764,-32.5 3.945,-10.394 6.367,-17.067 11.977,-33 5.702,-16.195 4.245,-15.108 19.82,-14.779 11.271,0.238 13.242,0.517 13.509,1.911 0.172,0.898 -3.059,10.798 -7.181,22 -4.122,11.202 -10.517,28.693 -14.21,38.868 -3.694,10.175 -8.259,22.55 -10.146,27.5 -1.887,4.95 -4.242,11.742 -5.234,15.093 -0.992,3.351 -2.527,7.491 -3.41,9.2 -0.884,1.709 -1.607,3.616 -1.607,4.237 0,0.621 -1.093,3.905 -2.429,7.299 -1.336,3.394 -4.315,11.346 -6.62,17.671 -2.305,6.325 -5.978,16.225 -8.162,22 -2.184,5.775 -4.787,12.975 -5.785,16 -0.998,3.025 -3.689,10.45 -5.979,16.5 -2.29,6.05 -4.421,11.9 -4.735,13 -1.191,4.162 -3.36,5.505 -8.695,5.384 -2.802,-0.064 -5.85,-0.316 -6.774,-0.56 z m 121.424,-0.152 c -0.996,-0.632 -1.202,-22.944 -1,-108.234 l 0.255,-107.438 56.71,-0.259 56.711,-0.258 1.125,2.103 c 1.165,2.177 1.018,23.19 -0.171,24.374 -0.343,0.342 -19.468,0.605 -42.5,0.585 -23.031,-0.02 -42.468,0.345 -43.194,0.81 -1.903,1.223 -1.87,64.09 0.034,65.299 0.707,0.448 20.056,0.822 42.999,0.83 38.732,0.014 41.776,0.141 42.559,1.766 0.464,0.962 0.593,6.925 0.285,13.25 l -0.558,11.5 -42.668,0.5 c -23.467,0.275 -42.997,0.83 -43.4,1.233 -0.798,0.799 -0.609,64.672 0.195,65.972 0.27,0.437 19.563,0.795 42.873,0.795 32.816,0 42.56,0.282 43.174,1.25 1.24,1.956 0.33,25.125 -1.02,25.984 -1.57,1 -110.832,0.94 -112.409,-0.062 z m 154.955,-0.372 c -1.742,-1.742 -1.742,-212.859 0,-214.6 1.706,-1.706 24.383,-1.662 25.491,0.05 0.445,0.687 1.034,43.1 1.309,94.25 l 0.5,93 38,0.53 c 20.9,0.292 38.112,0.629 38.25,0.75 0.137,0.121 0.25,5.755 0.25,12.52 0,8.233 -0.397,12.696 -1.2,13.5 -1.73,1.729 -100.871,1.729 -102.6,0 z M -222.225,666.292 c -1.505,-0.817 -2.978,-2.486 -3.273,-3.71 -0.295,-1.223 -0.413,-94.474 -0.263,-207.224 l 0.274,-205 3,0.068 c 2.711,0.062 11.411,1.823 49,9.923 6.6,1.422 21,4.136 32,6.03 26.912,4.635 33.662,6.13 34.641,7.674 1.33,2.097 1.082,386.222 -0.252,389.148 -0.61,1.34 -2.206,2.936 -3.547,3.547 -1.692,0.77 -18.698,1.098 -55.639,1.07 -45.108,-0.034 -53.62,-0.266 -55.941,-1.525 z m 579.363,0.537 c -7.906,-0.457 -15.556,-1.285 -17,-1.839 -1.444,-0.554 -6,-1.53 -10.125,-2.168 -40.847,-6.321 -79.667,-19.648 -115.102,-39.515 -62.086,-34.81 -110.257,-86.059 -141.024,-150.036 -9.484,-19.72 -11.208,-24.307 -9.781,-26.025 0.904,-1.089 0.795,-1.388 -0.506,-1.388 -4.879,0 -17.522,-46.555 -21.591,-79.5 -2.86,-23.151 -2.915,-72.982 -0.084,-75.812 0.691,-0.692 5.926,-0.324 16.303,1.146 41.623,5.897 83.26,8.02 123.415,6.294 15.328,-0.659 31.92,-1.638 36.87,-2.175 4.95,-0.537 13.275,-1.444 18.5,-2.015 35.765,-3.911 82.819,-13.106 117,-22.863 4.125,-1.178 10.828,-3.05 14.896,-4.161 29.96,-8.178 87.522,-34.809 122.604,-56.722 63.924,-39.93 108.508,-82.9 143.379,-138.192 21.331,-33.823 39.831,-81.915 41.804,-108.673 0.658,-8.919 1.543,-11.501 3.33,-9.714 2.888,2.888 4.983,59.734 3.053,82.841 -6.1,73.007 -27.906,130.525 -70.915,187.046 -16.443,21.61 -43.777,48.71 -70.151,69.551 -34.165,26.998 -75.917,51.535 -124.5,73.167 -46.926,20.894 -106.939,40.453 -165,53.776 -2.2,0.505 -6.925,1.598 -10.5,2.428 -5.858,1.361 -40.53,8.291 -50.5,10.094 -2.684,0.485 -3.455,0.93 -2.343,1.353 0.911,0.347 4.838,5.356 8.727,11.131 15.677,23.281 32.116,42.286 32.116,37.13 0,-1.02 3.989,-2.073 21,-5.545 47.338,-9.662 91.35,-22.216 134.556,-38.379 19.929,-7.455 50.843,-20.824 62.944,-27.22 3.85,-2.035 12.4,-6.529 19,-9.987 43.485,-22.781 87.105,-54.117 120.367,-86.47 11.133,-10.829 26.484,-27.581 33.133,-36.158 17.718,-22.855 24.084,-32.343 35.092,-52.306 8.678,-15.74 10.259,-15.029 4.359,1.96 -23.58,67.893 -59.086,122.535 -114.718,176.549 -36.377,35.319 -81.874,68.784 -132.733,97.633 -20.476,11.614 -71.667,36.793 -74.803,36.793 -0.659,0 -1.197,0.405 -1.197,0.9 0,1.327 12.03,3.674 31.322,6.112 12.551,1.585 57.292,1.217 71.178,-0.587 19.366,-2.515 23.717,-3.171 29,-4.377 28.328,-6.467 39.765,-10.297 60.824,-20.371 11.486,-5.494 10.744,-4.839 30.216,-26.652 12.666,-14.188 28.985,-34.698 38.611,-48.525 11.783,-16.925 17.29,-25.182 23.012,-34.5 37.122,-60.459 63.281,-125.459 76.464,-190 2.49,-12.193 4.344,-16.449 6.297,-14.457 2.279,2.324 12.166,38.527 15.061,55.146 4.27,24.516 5.386,37.255 5.369,61.311 -0.03,44.548 -7.123,83.371 -22.563,123.5 -17.662,45.903 -42.769,84.495 -77.771,119.538 -16.63,16.65 -26.727,25.321 -43.02,36.945 -35.447,25.288 -77.927,45.047 -117,54.42 -11.44,2.744 -38.179,7.416 -48.5,8.474 -14.894,1.526 -42.107,2.036 -58.375,1.094 z M 75.282,446.202 c -0.677,-0.274 -2.027,-0.291 -3,-0.037 -0.973,0.253 -0.419,0.477 1.231,0.498 1.65,0.02 2.446,-0.187 1.769,-0.461 z m 15.981,-1.007 c -0.688,-0.277 -1.813,-0.277 -2.5,0 -0.688,0.278 -0.125,0.505 1.25,0.505 1.375,0 1.937,-0.227 1.25,-0.505 z m 21,-2 c -0.688,-0.277 -1.813,-0.277 -2.5,0 -0.688,0.278 -0.125,0.505 1.25,0.505 1.375,0 1.937,-0.227 1.25,-0.505 z m 7.479,-0.941 c -0.332,-0.333 -1.195,-0.368 -1.917,-0.079 -0.797,0.319 -0.561,0.556 0.604,0.604 1.055,0.043 1.645,-0.193 1.313,-0.525 z m 11.032,-1.083 c -0.956,-0.251 -2.756,-0.26 -4,-0.02 -1.243,0.239 -0.461,0.444 1.739,0.455 2.2,0.011 3.218,-0.185 2.261,-0.435 z m 5.968,-0.917 c -0.332,-0.333 -1.195,-0.368 -1.917,-0.079 -0.797,0.319 -0.561,0.556 0.604,0.604 1.055,0.043 1.645,-0.193 1.313,-0.525 z m 10.54,-1.052 c -0.677,-0.274 -2.027,-0.291 -3,-0.037 -0.973,0.253 -0.419,0.477 1.231,0.498 1.65,0.02 2.446,-0.187 1.769,-0.461 z m 13.46,-1.948 c -0.332,-0.333 -1.195,-0.368 -1.917,-0.079 -0.797,0.319 -0.561,0.556 0.604,0.604 1.055,0.043 1.645,-0.193 1.313,-0.525 z m 6,-1 c -0.332,-0.333 -1.195,-0.368 -1.917,-0.079 -0.797,0.319 -0.561,0.556 0.604,0.604 1.055,0.043 1.645,-0.193 1.313,-0.525 z m 6.521,-1.059 c -0.688,-0.277 -1.813,-0.277 -2.5,0 -0.688,0.278 -0.125,0.505 1.25,0.505 1.375,0 1.937,-0.227 1.25,-0.505 z m 11.479,-1.941 c -0.332,-0.333 -1.195,-0.368 -1.917,-0.079 -0.797,0.319 -0.561,0.556 0.604,0.604 1.055,0.043 1.645,-0.193 1.313,-0.525 z M 148.013,241.171 c -9.021,-0.419 -30.535,-2.108 -42.5,-3.337 -13.436,-1.381 -46.376,-6.839 -48.665,-8.065 -2.213,-1.184 -2.249,-1.795 -0.386,-6.641 0.797,-2.074 1.964,-5.776 2.594,-8.227 1.47,-5.721 11.627,-29.782 17.731,-42.004 C 108.032,110.34 157.503,58.843 218.991,24.87 246.733,9.542 272.33,-0.19 307.513,-8.783 c 28.168,-6.881 72.183,-10.015 103.5,-7.371 47.293,3.993 91.962,16.911 132,38.175 12.397,6.584 29.465,16.859 36.172,21.777 14.549,10.668 16.828,12.574 16.828,14.074 0,2.212 -37.672,40.841 -51.396,52.703 -15.435,13.34 -34.414,27.283 -37.139,27.283 -1.243,0 -5.184,-1.776 -8.757,-3.947 -38.315,-23.277 -85.59,-34.567 -130.359,-31.131 -49.557,3.803 -92.828,21.522 -129.853,53.174 -18.701,15.986 -38.448,39.793 -48.566,58.55 -1.737,3.22 -4.198,7.654 -5.469,9.854 -1.271,2.2 -3.517,7.037 -4.992,10.75 l -2.682,6.75 -11.144,-0.193 c -6.129,-0.106 -14.068,-0.328 -17.643,-0.494 z m -260.12,-44.767 c -0.25,-0.249 -6.947,-2.311 -14.883,-4.582 -39.787,-11.384 -96.131,-31.074 -98.232,-34.327 -0.404,-0.625 -0.742,-39.07 -0.75,-85.433 l -0.015,-84.295 2.454,-2.455 2.455,-2.454 h 110.182 l 2.454,2.454 2.455,2.455 V 90.73 c 0,56.63 -0.273,103.676 -0.607,104.546 -0.552,1.437 -4.414,2.227 -5.513,1.128 z"
   style="fill:#fcc62f;fill-rule:nonzero"
   id="path7"
   inkscape:connector-curvature="0" />
            </g><g
     id="path827"
     transform="matrix(1.57352,0,0,1.4398,327.596,67.7596)">
                <path
   d="m -164.787,939.658 c -0.916,-0.916 -1.2,-23.129 -1.2,-93.878 0,-75.886 -0.241,-92.877 -1.33,-93.781 -0.864,-0.717 -9.525,-1.198 -24.75,-1.373 l -23.42,-0.268 v -24 l 59.5,-0.286 c 32.725,-0.157 60.976,-0.023 62.781,0.301 l 3.281,0.587 -0.281,11.699 -0.281,11.699 -24,0.5 c -13.2,0.275 -24.563,0.864 -25.25,1.309 -0.986,0.637 -1.25,20.574 -1.25,94.143 0,84.186 -0.155,93.393 -1.582,93.941 -2.982,1.144 -20.961,0.664 -22.218,-0.593 z m 108.8,0.308 -2.5,-0.698 -0.255,-105.347 c -0.186,-77.014 0.049,-105.713 0.873,-106.705 0.904,-1.091 7.203,-1.358 31.947,-1.358 H 4.899 l 9.307,3.089 c 23.557,7.818 40.294,24.437 48.251,47.911 2.228,6.575 2.541,9.164 2.536,21 -0.006,15.226 -1.318,20.948 -7.778,33.95 -4.469,8.994 -17.626,23.306 -27.633,30.058 -6.384,4.308 -6.636,4.631 -6.148,7.912 0.286,1.921 3.043,7.059 6.294,11.723 3.181,4.566 8.26,12.327 11.285,17.247 3.025,4.92 8.762,13.738 12.75,19.596 3.987,5.858 7.25,10.876 7.25,11.152 0,0.276 1.406,2.546 3.126,5.045 2.508,3.645 2.854,4.717 1.75,5.426 -0.757,0.485 -7.164,0.798 -14.238,0.696 l -12.862,-0.187 -3.752,-5.059 c -2.063,-2.783 -6.341,-9.334 -9.504,-14.559 -3.164,-5.225 -7.938,-12.875 -10.608,-17 -2.67,-4.125 -8.008,-12.726 -11.864,-19.112 -3.855,-6.386 -7.733,-12.212 -8.618,-12.947 -1.826,-1.515 -25.259,-1.476 -26.804,0.046 -0.48,0.473 -0.841,14.057 -0.801,30.186 0.04,16.13 -0.243,31.352 -0.627,33.827 l -0.698,4.5 -9.5,0.153 c -5.225,0.084 -10.625,-0.16 -12,-0.545 z m 67,-97.866 c 22.78,-9.228 34.602,-35.421 26.602,-58.942 -3.226,-9.486 -4.05,-10.868 -10.509,-17.641 -6.064,-6.358 -13.75,-10.738 -23.087,-13.158 -7.543,-1.954 -32.801,-2.103 -35.392,-0.209 -1.645,1.203 -1.767,4.4 -1.763,45.979 0.002,24.577 0.305,45.172 0.672,45.767 0.452,0.731 6.701,0.976 19.323,0.756 16.521,-0.287 19.283,-0.579 24.154,-2.552 z m 77.241,96.944 c -0.306,-0.798 -0.029,-2.297 0.617,-3.331 0.645,-1.033 2.248,-5.136 3.562,-9.117 1.314,-3.981 3.817,-11.063 5.563,-15.738 1.745,-4.675 4.226,-11.425 5.512,-15 5.438,-15.113 8.596,-23.625 9.462,-25.5 0.508,-1.1 2.054,-5.375 3.434,-9.5 2.47,-7.38 12.23,-34.438 20.56,-57 2.335,-6.325 5.292,-14.425 6.571,-18 1.279,-3.575 4.413,-12.125 6.965,-19 2.552,-6.875 6.708,-18.35 9.236,-25.5 2.527,-7.15 5.028,-13.563 5.558,-14.25 0.999,-1.296 7.581,-1.662 11.411,-0.635 1.564,0.419 2.765,2.207 4.19,6.236 1.098,3.107 3.63,9.924 5.628,15.149 1.997,5.225 4.458,11.975 5.469,15 2.896,8.662 9.712,27.392 11.894,32.684 1.092,2.648 4.78,12.691 8.195,22.316 12.104,34.114 13.716,38.591 16.923,47 1.783,4.675 4.691,12.55 6.463,17.5 11.727,32.769 13.751,38.261 14.927,40.5 1.898,3.612 4.853,14.946 4.284,16.429 -0.355,0.927 -3.363,1.208 -11.325,1.059 -5.962,-0.111 -11.387,-0.267 -12.055,-0.346 -1.55,-0.182 -3.231,-3.333 -4.854,-9.096 -0.704,-2.501 -2.918,-8.821 -4.919,-14.046 -2.002,-5.225 -5.646,-15.125 -8.098,-22 -2.452,-6.875 -5.573,-15.322 -6.936,-18.77 -1.363,-3.449 -2.478,-6.936 -2.478,-7.75 0,-0.814 -0.9,-2.38 -2,-3.48 -1.907,-1.907 -3.334,-2 -30.477,-2 -28.447,0 -28.479,0 -29.889,2.25 -0.776,1.237 -1.941,4.05 -2.587,6.25 -0.647,2.2 -1.791,5.575 -2.542,7.5 -0.751,1.925 -3.709,10.025 -6.574,18 -11.172,31.106 -14.419,39.685 -15.9,42 -1.389,2.171 -24.963,2.342 -25.79,0.186 z M 190.336,836.392 c 1.286,-1.287 1.287,-1.986 0.009,-5.698 -0.802,-2.328 -1.739,-4.685 -2.081,-5.24 -0.76,-1.229 -5.493,-14.389 -8.847,-24.596 -3.21,-9.771 -5.592,-14.5 -7.304,-14.5 -1.696,0 -2.139,0.833 -6.114,11.5 -1.742,4.675 -4.4,11.65 -5.906,15.5 -5.994,15.318 -7.574,21.199 -6.154,22.91 1.879,2.265 34.147,2.374 36.397,0.123 z m 157.498,103.756 c -2.24,-0.342 -3.002,-1.34 -4.656,-6.1 -7.567,-21.767 -13.555,-38.558 -15.58,-43.69 -1.302,-3.3 -3.511,-9.15 -4.909,-13 -1.397,-3.85 -6.903,-18.925 -12.233,-33.5 -5.331,-14.575 -12.532,-34.375 -16.003,-44 -3.471,-9.625 -8.16,-22.45 -10.419,-28.5 -11.599,-31.061 -15.325,-42.267 -14.643,-44.044 0.444,-1.157 2.873,-1.453 11.84,-1.441 6.205,0.008 11.801,0.346 12.436,0.75 0.635,0.404 5.299,12.21 10.364,26.235 5.066,14.025 11.919,32.7 15.23,41.5 3.31,8.8 8.167,22.075 10.792,29.5 4.928,13.94 7.753,21.739 12.857,35.5 8.081,21.786 8.143,21.9 10.557,19.457 1.42,-1.437 2.35,-3.826 13.025,-33.457 2.972,-8.25 6.814,-18.825 8.538,-23.5 1.724,-4.675 4.415,-12.1 5.98,-16.5 8.645,-24.298 10.946,-30.603 13.338,-36.54 1.449,-3.598 3.292,-8.548 4.096,-11.001 2.303,-7.029 8.188,-23.094 9.945,-27.146 1.394,-3.217 2.141,-3.766 5.861,-4.311 2.344,-0.344 7.863,-0.485 12.263,-0.314 7.242,0.282 8.028,0.51 8.299,2.408 0.267,1.867 -1.55,7.183 -12.957,37.904 -1.633,4.4 -3.573,9.8 -4.31,12 -0.737,2.2 -4.583,12.775 -8.546,23.5 -3.963,10.725 -8.088,22.2 -9.166,25.5 -1.077,3.3 -2.59,7.575 -3.362,9.5 -0.771,1.925 -3.677,9.8 -6.458,17.5 -2.781,7.7 -5.671,15.575 -6.423,17.5 -1.399,3.582 -8.787,23.72 -16.877,46 -8.863,24.409 -8.423,23.89 -18.879,22.29 z m 121.136,-0.316 c -2.145,-1.326 -2.757,-211.066 -0.621,-212.839 1.021,-0.846 15.966,-1.084 56.277,-0.894 l 54.887,0.259 v 24 l -42.5,0.253 c -38.538,0.23 -42.617,0.411 -43.75,1.941 -1.534,2.071 -1.787,62.907 -0.272,65.306 0.81,1.282 7.163,1.572 43.735,2 l 42.787,0.5 v 24 l -42.5,0.253 c -38.538,0.23 -42.617,0.411 -43.75,1.941 -0.938,1.267 -1.25,9.578 -1.25,33.305 0,23.728 0.312,32.039 1.25,33.306 1.133,1.53 5.212,1.711 43.75,1.941 l 42.5,0.253 0.283,11.921 c 0.21,8.858 -0.047,12.134 -1,12.751 -1.746,1.13 -107.986,0.939 -109.826,-0.197 z m 154.793,-0.054 c -1.649,-0.961 -1.75,-7.086 -1.75,-106.27 0,-80.528 0.282,-105.532 1.2,-106.45 1.359,-1.359 20.491,-1.683 22.54,-0.382 0.972,0.618 1.247,20.763 1.27,93.157 0.02,65.787 0.347,92.751 1.132,93.697 0.88,1.06 8.505,1.328 37.78,1.328 27.194,0 36.988,0.31 37.878,1.2 0.784,0.785 1.2,4.925 1.2,11.965 0,9.619 -0.206,10.875 -1.935,11.8 -2.631,1.408 -96.894,1.365 -99.315,-0.045 z M 357.755,666.864 c -15.438,-0.89 -19.052,-1.533 -18.512,-3.293 0.205,-0.667 4.175,-3.175 8.821,-5.573 66.27,-34.202 129.014,-79.161 175.992,-126.108 9.098,-9.093 19.898,-20.348 24,-25.012 4.101,-4.664 9.275,-10.514 11.497,-13 12.583,-14.079 28.973,-34.676 38.611,-48.52 11.783,-16.925 17.29,-25.182 23.012,-34.5 37.122,-60.459 63.281,-125.459 76.464,-190 2.49,-12.192 4.344,-16.449 6.297,-14.457 2.279,2.325 12.166,38.527 15.061,55.146 4.27,24.516 5.386,37.255 5.369,61.311 -0.03,44.548 -7.123,83.372 -22.563,123.5 -17.662,45.903 -42.769,84.495 -77.771,119.538 -16.63,16.65 -26.727,25.321 -43.02,36.945 -35.447,25.289 -77.927,45.047 -117,54.42 -11.44,2.744 -38.179,7.416 -48.5,8.474 -14.659,1.502 -42.008,2.037 -57.758,1.129 z m -575.888,-0.713 c -1.456,-0.223 -3.377,-1.213 -4.269,-2.199 -1.485,-1.641 -1.636,-19.206 -1.773,-206.694 -0.142,-193.36 -0.053,-204.919 1.576,-205.235 0.95,-0.184 6.763,0.805 12.919,2.197 6.156,1.392 14.568,3.22 18.693,4.063 4.125,0.843 11.775,2.473 17,3.622 5.225,1.149 16.925,3.358 26,4.909 26.41,4.514 35.348,6.202 37.75,7.131 l 2.25,0.87 0.179,60.271 c 0.279,93.683 -0.289,326.079 -0.801,327.938 -0.977,3.542 -5.53,3.837 -56.777,3.684 -27.556,-0.083 -51.292,-0.333 -52.747,-0.557 z m 545.646,-5.005 c -7.969,-1.094 -27.957,-5.612 -41,-9.267 -6.188,-1.734 -21.229,-6.931 -27.5,-9.501 -12.707,-5.207 -25.582,-10.842 -31.253,-13.676 -14.253,-7.125 -44.768,-26.68 -57.247,-36.687 -13.83,-11.09 -45.5,-41.213 -45.5,-43.278 0,-0.383 -1.913,-2.671 -4.25,-5.085 -6.094,-6.295 -24.336,-31.997 -31.792,-44.794 -8.953,-15.366 -22.958,-44.382 -22.958,-47.564 0,-1.768 3.926,-2.541 18,-3.547 28.57,-2.04 35.88,-2.697 36.875,-3.312 0.577,-0.357 3.204,-0.67 5.837,-0.695 2.633,-0.026 6.363,-0.443 8.288,-0.927 1.925,-0.484 5.75,-1.096 8.5,-1.359 5.133,-0.491 21.956,-2.778 33.5,-4.555 3.575,-0.551 7.956,-1.01 9.735,-1.021 3.481,-0.023 2.962,-0.593 12.391,13.634 9.582,14.457 19.769,26.457 35.101,41.346 13.571,13.179 24.4,21.927 27.208,21.981 0.515,0.012 1.865,0.882 3,1.937 2.716,2.522 20.706,11.637 27.065,13.712 2.75,0.897 6.125,2.237 7.5,2.978 8.136,4.385 41.923,12.446 65,15.509 5.635,0.748 21.094,1.283 38,1.315 31.818,0.062 49.545,-1.74 74,-7.519 12.325,-2.913 36.078,-10.228 39,-12.011 0.825,-0.503 2.175,-1.166 3,-1.473 0.825,-0.307 3.916,-1.675 6.869,-3.041 2.953,-1.366 5.561,-2.291 5.796,-2.057 0.235,0.235 -4.863,5.544 -11.327,11.798 -6.465,6.254 -12.886,12.608 -14.269,14.121 -1.383,1.512 -2.916,2.75 -3.407,2.75 -0.491,0 -2.078,1.154 -3.527,2.565 -5.984,5.826 -18.715,16.391 -19.778,16.412 -0.629,0.014 -1.395,0.678 -1.702,1.48 -0.308,0.802 -2.301,2.556 -4.429,3.9 -2.128,1.343 -6.762,4.977 -10.297,8.074 -3.536,3.098 -8.454,6.802 -10.929,8.231 -2.475,1.429 -5.85,3.807 -7.5,5.283 -1.65,1.477 -4.125,3.44 -5.5,4.362 -10.778,7.231 -13.869,9.39 -16.444,11.489 -1.619,1.32 -3.881,2.757 -5.026,3.192 -1.146,0.436 -5.113,2.867 -8.817,5.402 -3.703,2.535 -7.174,4.61 -7.714,4.61 -0.54,0 -3.123,1.637 -5.741,3.638 -2.617,2.001 -6.558,4.483 -8.758,5.515 -2.2,1.032 -5.575,2.824 -7.5,3.981 -12.94,7.78 -20.145,11.847 -24.5,13.828 -2.75,1.251 -5.675,2.659 -6.5,3.128 -10.163,5.782 -11.891,6.243 -19.5,5.198 z m -2.5,-123.695 c -29.193,-7.893 -47.635,-16.005 -67.697,-29.779 -11.197,-7.688 -27.303,-22.292 -27.303,-24.756 0,-2.032 1.491,-2.491 21,-6.473 47.338,-9.662 91.35,-22.216 134.556,-38.379 19.929,-7.455 50.843,-20.824 62.944,-27.22 3.85,-2.035 12.4,-6.529 19,-9.987 43.485,-22.781 87.105,-54.117 120.367,-86.47 11.133,-10.829 26.484,-27.581 33.133,-36.158 17.718,-22.855 24.084,-32.343 35.092,-52.306 8.678,-15.74 10.259,-15.029 4.359,1.96 -23.58,67.893 -59.086,122.535 -114.718,176.549 -49.95,48.497 -115.979,92.604 -189.733,126.739 -9.075,4.201 -17.85,7.849 -19.5,8.107 -1.65,0.259 -6.825,-0.563 -11.5,-1.827 z M 63.385,445.873 c -5.334,-2.157 -17.255,-46.366 -21.306,-79.015 -2.923,-23.554 -3.023,-73.443 -0.154,-76.312 0.691,-0.692 5.926,-0.324 16.303,1.146 41.623,5.897 83.26,8.02 123.415,6.294 15.328,-0.659 31.92,-1.638 36.87,-2.175 4.95,-0.537 13.275,-1.444 18.5,-2.015 35.765,-3.911 82.819,-13.106 117,-22.863 4.125,-1.178 10.828,-3.05 14.896,-4.161 29.96,-8.178 87.522,-34.809 122.604,-56.722 63.924,-39.93 108.508,-82.9 143.379,-138.192 21.331,-33.823 39.831,-81.915 41.804,-108.673 0.658,-8.919 1.543,-11.501 3.33,-9.714 2.888,2.888 4.983,59.734 3.053,82.841 -6.1,73.007 -27.906,130.525 -70.915,187.046 -16.443,21.61 -43.777,48.71 -70.151,69.551 -34.165,26.998 -75.917,51.535 -124.5,73.167 -46.926,20.894 -106.939,40.453 -165,53.776 -2.2,0.505 -6.925,1.598 -10.5,2.428 -10.181,2.365 -45.955,9.36 -51.5,10.069 -2.75,0.352 -10.4,1.499 -17,2.549 -42.274,6.725 -105.144,12.99 -110.128,10.975 z M 151.013,239.76 c -30.966,-1.265 -65.851,-5.242 -88.833,-10.128 -5.952,-1.265 -5.721,-0.281 -2.653,-11.274 1.503,-5.384 4.134,-12.355 7.927,-21 0.724,-1.65 2.476,-5.925 3.894,-9.5 7.367,-18.569 23.56,-45.807 41.504,-69.812 9.828,-13.149 31.553,-36.953 40.481,-44.357 3.399,-2.819 7.167,-6.071 8.374,-7.228 4.737,-4.542 6.16,-5.705 14.831,-12.124 38.916,-28.811 82.023,-49.755 121.475,-59.019 5.775,-1.356 12.228,-2.945 14.339,-3.53 11.903,-3.299 34.285,-5.954 58.01,-6.88 27.159,-1.061 50.392,0.386 71.651,4.463 7.425,1.424 15.772,3.022 18.55,3.552 9.507,1.812 47.626,14.025 55.95,17.926 12.668,5.937 29.618,14.243 32,15.681 29.941,18.078 45.395,28.626 45.465,31.032 0.064,2.235 -33.061,36.87 -45.465,47.536 -3.85,3.311 -9.77,8.452 -13.156,11.426 -3.386,2.973 -7.661,6.51 -9.5,7.859 -7.629,5.594 -18.169,12.475 -19.11,12.475 -0.555,0 -4.061,-2.011 -7.792,-4.469 -14.343,-9.449 -46.099,-22.111 -67.442,-26.89 -19.956,-4.468 -53.422,-5.874 -75.5,-3.171 -29.506,3.612 -53.28,11.367 -82.866,27.03 -7.926,4.196 -28.345,19.008 -37.788,27.41 -10.322,9.186 -22.797,22.346 -26.885,28.362 -1.324,1.949 -2.783,3.697 -3.24,3.885 -1.519,0.625 -13.924,19.235 -17.226,25.843 -1.787,3.575 -4.071,7.665 -5.076,9.09 -1.005,1.424 -2.808,5.249 -4.006,8.5 -2.681,7.27 -3.579,8.451 -6.286,8.259 -1.17,-0.083 -10.902,-0.509 -21.627,-0.947 z m -268,-46.457 c -4.125,-1.27 -12.9,-3.945 -19.5,-5.944 -25.258,-7.652 -40.339,-12.471 -49.5,-15.82 -5.225,-1.91 -14.675,-5.35 -21,-7.644 -6.325,-2.294 -12.738,-4.635 -14.25,-5.202 -1.513,-0.567 -2.76,-1.549 -2.772,-2.183 -0.012,-0.634 -0.003,-38.946 0.022,-85.138 0.035,-67.75 0.296,-84.239 1.35,-85.293 1.742,-1.742 111.222,-1.821 113.318,-0.082 1.093,0.908 1.332,19.679 1.332,104.924 0,57.1 -0.338,104.015 -0.75,104.255 -0.413,0.24 -4.125,-0.603 -8.25,-1.873 z"
   style="fill:#53b7fa;fill-rule:nonzero"
   id="path10"
   inkscape:connector-curvature="0" />
            </g><g
     id="path825"
     transform="matrix(1.57352,0,0,1.4398,327.596,67.7596)">
                <path
   d="m -164.787,939.658 c -0.916,-0.916 -1.2,-23.129 -1.2,-93.878 0,-75.886 -0.241,-92.877 -1.33,-93.781 -0.864,-0.717 -9.525,-1.198 -24.75,-1.373 l -23.42,-0.268 v -24 l 59.5,-0.286 c 32.725,-0.157 60.976,-0.023 62.781,0.301 l 3.281,0.587 -0.281,11.699 -0.281,11.699 -24,0.5 c -13.2,0.275 -24.563,0.864 -25.25,1.309 -0.986,0.637 -1.25,20.574 -1.25,94.143 0,84.186 -0.155,93.393 -1.582,93.941 -2.982,1.144 -20.961,0.664 -22.218,-0.593 z m 108.8,0.308 -2.5,-0.698 -0.255,-105.347 c -0.186,-77.014 0.049,-105.713 0.873,-106.705 0.904,-1.091 7.203,-1.358 31.947,-1.358 H 4.899 l 9.307,3.089 c 23.557,7.818 40.294,24.437 48.251,47.911 2.228,6.575 2.541,9.164 2.536,21 -0.006,15.226 -1.318,20.948 -7.778,33.95 -4.469,8.994 -17.626,23.306 -27.633,30.058 -6.384,4.308 -6.636,4.631 -6.148,7.912 0.286,1.921 3.043,7.059 6.294,11.723 3.181,4.566 8.26,12.327 11.285,17.247 3.025,4.92 8.762,13.738 12.75,19.596 3.987,5.858 7.25,10.876 7.25,11.152 0,0.276 1.406,2.546 3.126,5.045 2.508,3.645 2.854,4.717 1.75,5.426 -0.757,0.485 -7.164,0.798 -14.238,0.696 l -12.862,-0.187 -3.752,-5.059 c -2.063,-2.783 -6.341,-9.334 -9.504,-14.559 -3.164,-5.225 -7.938,-12.875 -10.608,-17 -2.67,-4.125 -8.008,-12.726 -11.864,-19.112 -3.855,-6.386 -7.733,-12.212 -8.618,-12.947 -1.826,-1.515 -25.259,-1.476 -26.804,0.046 -0.48,0.473 -0.841,14.057 -0.801,30.186 0.04,16.13 -0.243,31.352 -0.627,33.827 l -0.698,4.5 -9.5,0.153 c -5.225,0.084 -10.625,-0.16 -12,-0.545 z m 67,-97.866 c 22.78,-9.228 34.602,-35.421 26.602,-58.942 -3.226,-9.486 -4.05,-10.868 -10.509,-17.641 -6.064,-6.358 -13.75,-10.738 -23.087,-13.158 -7.543,-1.954 -32.801,-2.103 -35.392,-0.209 -1.645,1.203 -1.767,4.4 -1.763,45.979 0.002,24.577 0.305,45.172 0.672,45.767 0.452,0.731 6.701,0.976 19.323,0.756 16.521,-0.287 19.283,-0.579 24.154,-2.552 z m 77.241,96.944 c -0.306,-0.798 -0.029,-2.297 0.617,-3.331 0.645,-1.033 2.248,-5.136 3.562,-9.117 1.314,-3.981 3.817,-11.063 5.563,-15.738 1.745,-4.675 4.226,-11.425 5.512,-15 5.438,-15.113 8.596,-23.625 9.462,-25.5 0.508,-1.1 2.054,-5.375 3.434,-9.5 2.47,-7.38 12.23,-34.438 20.56,-57 2.335,-6.325 5.292,-14.425 6.571,-18 1.279,-3.575 4.413,-12.125 6.965,-19 2.552,-6.875 6.708,-18.35 9.236,-25.5 2.527,-7.15 5.028,-13.563 5.558,-14.25 0.999,-1.296 7.581,-1.662 11.411,-0.635 1.564,0.419 2.765,2.207 4.19,6.236 1.098,3.107 3.63,9.924 5.628,15.149 1.997,5.225 4.458,11.975 5.469,15 2.896,8.662 9.712,27.392 11.894,32.684 1.092,2.648 4.78,12.691 8.195,22.316 12.104,34.114 13.716,38.591 16.923,47 1.783,4.675 4.691,12.55 6.463,17.5 11.727,32.769 13.751,38.261 14.927,40.5 1.898,3.612 4.853,14.946 4.284,16.429 -0.355,0.927 -3.363,1.208 -11.325,1.059 -5.962,-0.111 -11.387,-0.267 -12.055,-0.346 -1.55,-0.182 -3.231,-3.333 -4.854,-9.096 -0.704,-2.501 -2.918,-8.821 -4.919,-14.046 -2.002,-5.225 -5.646,-15.125 -8.098,-22 -2.452,-6.875 -5.573,-15.322 -6.936,-18.77 -1.363,-3.449 -2.478,-6.936 -2.478,-7.75 0,-0.814 -0.9,-2.38 -2,-3.48 -1.907,-1.907 -3.334,-2 -30.477,-2 -28.447,0 -28.479,0 -29.889,2.25 -0.776,1.237 -1.941,4.05 -2.587,6.25 -0.647,2.2 -1.791,5.575 -2.542,7.5 -0.751,1.925 -3.709,10.025 -6.574,18 -11.172,31.106 -14.419,39.685 -15.9,42 -1.389,2.171 -24.963,2.342 -25.79,0.186 z M 190.336,836.392 c 1.286,-1.287 1.287,-1.986 0.009,-5.698 -0.802,-2.328 -1.739,-4.685 -2.081,-5.24 -0.76,-1.229 -5.493,-14.389 -8.847,-24.596 -3.21,-9.771 -5.592,-14.5 -7.304,-14.5 -1.696,0 -2.139,0.833 -6.114,11.5 -1.742,4.675 -4.4,11.65 -5.906,15.5 -5.994,15.318 -7.574,21.199 -6.154,22.91 1.879,2.265 34.147,2.374 36.397,0.123 z m 157.498,103.756 c -2.24,-0.342 -3.002,-1.34 -4.656,-6.1 -7.567,-21.767 -13.555,-38.558 -15.58,-43.69 -1.302,-3.3 -3.511,-9.15 -4.909,-13 -1.397,-3.85 -6.903,-18.925 -12.233,-33.5 -5.331,-14.575 -12.532,-34.375 -16.003,-44 -3.471,-9.625 -8.16,-22.45 -10.419,-28.5 -11.599,-31.061 -15.325,-42.267 -14.643,-44.044 0.444,-1.157 2.873,-1.453 11.84,-1.441 6.205,0.008 11.801,0.346 12.436,0.75 0.635,0.404 5.299,12.21 10.364,26.235 5.066,14.025 11.919,32.7 15.23,41.5 3.31,8.8 8.167,22.075 10.792,29.5 4.928,13.94 7.753,21.739 12.857,35.5 8.081,21.786 8.143,21.9 10.557,19.457 1.42,-1.437 2.35,-3.826 13.025,-33.457 2.972,-8.25 6.814,-18.825 8.538,-23.5 1.724,-4.675 4.415,-12.1 5.98,-16.5 8.645,-24.298 10.946,-30.603 13.338,-36.54 1.449,-3.598 3.292,-8.548 4.096,-11.001 2.303,-7.029 8.188,-23.094 9.945,-27.146 1.394,-3.217 2.141,-3.766 5.861,-4.311 2.344,-0.344 7.863,-0.485 12.263,-0.314 7.242,0.282 8.028,0.51 8.299,2.408 0.267,1.867 -1.55,7.183 -12.957,37.904 -1.633,4.4 -3.573,9.8 -4.31,12 -0.737,2.2 -4.583,12.775 -8.546,23.5 -3.963,10.725 -8.088,22.2 -9.166,25.5 -1.077,3.3 -2.59,7.575 -3.362,9.5 -0.771,1.925 -3.677,9.8 -6.458,17.5 -2.781,7.7 -5.671,15.575 -6.423,17.5 -1.399,3.582 -8.787,23.72 -16.877,46 -8.863,24.409 -8.423,23.89 -18.879,22.29 z m 121.136,-0.316 c -2.145,-1.326 -2.757,-211.066 -0.621,-212.839 1.021,-0.846 15.966,-1.084 56.277,-0.894 l 54.887,0.259 v 24 l -42.5,0.253 c -38.538,0.23 -42.617,0.411 -43.75,1.941 -1.534,2.071 -1.787,62.907 -0.272,65.306 0.81,1.282 7.163,1.572 43.735,2 l 42.787,0.5 v 24 l -42.5,0.253 c -38.538,0.23 -42.617,0.411 -43.75,1.941 -0.938,1.267 -1.25,9.578 -1.25,33.305 0,23.728 0.312,32.039 1.25,33.306 1.133,1.53 5.212,1.711 43.75,1.941 l 42.5,0.253 0.283,11.921 c 0.21,8.858 -0.047,12.134 -1,12.751 -1.746,1.13 -107.986,0.939 -109.826,-0.197 z m 154.793,-0.054 c -1.649,-0.961 -1.75,-7.086 -1.75,-106.27 0,-80.528 0.282,-105.532 1.2,-106.45 1.359,-1.359 20.491,-1.683 22.54,-0.382 0.972,0.618 1.247,20.763 1.27,93.157 0.02,65.787 0.347,92.751 1.132,93.697 0.88,1.06 8.505,1.328 37.78,1.328 27.194,0 36.988,0.31 37.878,1.2 0.784,0.785 1.2,4.925 1.2,11.965 0,9.619 -0.206,10.875 -1.935,11.8 -2.631,1.408 -96.894,1.365 -99.315,-0.045 z M -218.133,666.151 c -1.456,-0.223 -3.377,-1.213 -4.269,-2.199 -1.485,-1.641 -1.636,-19.206 -1.773,-206.694 -0.142,-193.36 -0.053,-204.919 1.576,-205.235 0.95,-0.184 6.763,0.805 12.919,2.197 6.156,1.392 14.568,3.22 18.693,4.063 4.125,0.843 11.775,2.473 17,3.622 5.225,1.149 16.925,3.358 26,4.909 26.41,4.514 35.348,6.202 37.75,7.131 l 2.25,0.87 0.179,60.271 c 0.279,93.683 -0.289,326.079 -0.801,327.938 -0.977,3.542 -5.53,3.837 -56.777,3.684 -27.556,-0.083 -51.292,-0.333 -52.747,-0.557 z m 567.646,-0.908 c -7.591,-0.756 -10.554,-1.49 -9.951,-2.466 0.333,-0.538 5.04,-3.204 10.461,-5.924 20.048,-10.061 51.763,-28.811 74.99,-44.334 21.481,-14.357 49.308,-35.626 72,-55.033 21.161,-18.097 67.534,-65.799 81,-83.321 1.375,-1.789 5.92,-7.653 10.099,-13.03 29.504,-37.959 59.167,-88.919 77.869,-133.78 15.244,-36.564 30.758,-87.651 34.923,-114.997 1.251,-8.218 3.259,-4.024 10.006,20.895 5.879,21.718 8.355,35.134 10.63,57.605 3.582,35.374 0.354,80.884 -8.05,113.5 -16.725,64.91 -45.436,115.631 -91.425,161.516 -54.135,54.011 -119.513,86.399 -197.052,97.619 -10.029,1.451 -65.564,2.738 -75.5,1.75 z m -22,-4.097 c -7.969,-1.094 -27.957,-5.612 -41,-9.267 -6.188,-1.734 -21.229,-6.931 -27.5,-9.501 -12.707,-5.207 -25.582,-10.842 -31.253,-13.676 -14.253,-7.125 -44.768,-26.68 -57.247,-36.687 -13.83,-11.09 -45.5,-41.213 -45.5,-43.278 0,-0.383 -1.913,-2.671 -4.25,-5.085 -6.094,-6.295 -24.336,-31.997 -31.792,-44.794 -8.953,-15.366 -22.958,-44.382 -22.958,-47.564 0,-1.768 3.926,-2.541 18,-3.547 28.57,-2.04 35.88,-2.697 36.875,-3.312 0.577,-0.357 3.204,-0.67 5.837,-0.695 2.633,-0.026 6.363,-0.443 8.288,-0.927 1.925,-0.484 5.75,-1.096 8.5,-1.359 5.133,-0.491 21.956,-2.778 33.5,-4.555 3.575,-0.551 7.956,-1.01 9.735,-1.021 3.481,-0.023 2.962,-0.593 12.391,13.634 9.582,14.457 19.769,26.457 35.101,41.346 13.571,13.179 24.4,21.927 27.208,21.981 0.515,0.012 1.865,0.882 3,1.937 2.716,2.522 20.706,11.637 27.065,13.712 2.75,0.897 6.125,2.237 7.5,2.978 8.136,4.385 41.923,12.446 65,15.509 5.635,0.748 21.094,1.283 38,1.315 31.818,0.062 49.545,-1.74 74,-7.519 12.325,-2.913 36.078,-10.228 39,-12.011 0.825,-0.503 2.175,-1.166 3,-1.473 0.825,-0.307 3.916,-1.675 6.869,-3.041 2.953,-1.366 5.561,-2.291 5.796,-2.057 0.235,0.235 -4.863,5.544 -11.327,11.798 -6.465,6.254 -12.886,12.608 -14.269,14.121 -1.383,1.512 -2.916,2.75 -3.407,2.75 -0.491,0 -2.078,1.154 -3.527,2.565 -5.984,5.826 -18.715,16.391 -19.778,16.412 -0.629,0.014 -1.395,0.678 -1.702,1.48 -0.308,0.802 -2.301,2.556 -4.429,3.9 -2.128,1.343 -6.762,4.977 -10.297,8.074 -3.536,3.098 -8.454,6.802 -10.929,8.231 -2.475,1.429 -5.85,3.807 -7.5,5.283 -1.65,1.477 -4.125,3.44 -5.5,4.362 -10.778,7.231 -13.869,9.39 -16.444,11.489 -1.619,1.32 -3.881,2.757 -5.026,3.192 -1.146,0.436 -5.113,2.867 -8.817,5.402 -3.703,2.535 -7.174,4.61 -7.714,4.61 -0.54,0 -3.123,1.637 -5.741,3.638 -2.617,2.001 -6.558,4.483 -8.758,5.515 -2.2,1.032 -5.575,2.824 -7.5,3.981 -12.94,7.78 -20.145,11.847 -24.5,13.828 -2.75,1.251 -5.675,2.659 -6.5,3.128 -10.163,5.782 -11.891,6.243 -19.5,5.198 z m -3.5,-123.921 c -26.079,-6.88 -49.038,-17.195 -68.368,-30.716 -7.998,-5.595 -25.632,-21.138 -25.632,-22.593 0,-0.906 4.709,-2.174 17,-4.578 4.675,-0.914 12.1,-2.487 16.5,-3.495 4.4,-1.007 13.175,-3.019 19.5,-4.469 21.066,-4.832 45.143,-11.731 74.5,-21.349 57.457,-18.824 119.409,-48.922 164,-79.675 6.6,-4.552 13.665,-9.563 15.701,-11.134 2.036,-1.572 5.595,-4.208 7.909,-5.858 21.355,-15.226 62.277,-54.284 76.483,-73 2.088,-2.75 5.54,-7.25 7.673,-10 11.534,-14.874 12.698,-16.6 22.743,-33.731 2.815,-4.802 5.517,-8.977 6.005,-9.278 1.738,-1.074 -6.257,20.295 -14.034,37.509 -11.992,26.544 -23.923,46.924 -45.08,77 -1.741,2.475 -6.594,8.706 -10.783,13.848 -4.19,5.141 -9.722,11.948 -12.294,15.125 -8.452,10.442 -43.038,44.321 -57.823,56.643 -34.877,29.065 -71.659,54.168 -111.5,76.098 -10.936,6.019 -42.902,22.207 -51.5,26.081 -2.475,1.115 -8.044,3.642 -12.375,5.616 -8.608,3.923 -10.44,4.115 -18.625,1.956 z m -173,-297.465 c -30.966,-1.265 -65.851,-5.242 -88.833,-10.128 -5.952,-1.265 -5.721,-0.281 -2.653,-11.274 1.503,-5.384 4.134,-12.355 7.927,-21 0.724,-1.65 2.476,-5.925 3.894,-9.5 7.367,-18.569 23.56,-45.807 41.504,-69.812 9.828,-13.149 31.553,-36.953 40.481,-44.357 3.399,-2.819 7.167,-6.071 8.374,-7.228 4.737,-4.542 6.16,-5.705 14.831,-12.124 38.916,-28.811 82.023,-49.755 121.475,-59.019 5.775,-1.356 12.228,-2.945 14.339,-3.53 11.903,-3.299 34.285,-5.954 58.01,-6.88 27.159,-1.061 50.392,0.386 71.651,4.463 7.425,1.424 15.772,3.022 18.55,3.552 9.507,1.812 47.626,14.025 55.95,17.926 12.668,5.937 29.618,14.243 32,15.681 29.941,18.078 45.395,28.626 45.465,31.032 0.064,2.235 -33.061,36.87 -45.465,47.536 -3.85,3.311 -9.77,8.452 -13.156,11.426 -3.386,2.973 -7.661,6.51 -9.5,7.859 -7.629,5.594 -18.169,12.475 -19.11,12.475 -0.555,0 -4.061,-2.011 -7.792,-4.469 -14.343,-9.449 -46.099,-22.111 -67.442,-26.89 -19.956,-4.468 -53.422,-5.874 -75.5,-3.171 -29.506,3.612 -53.28,11.367 -82.866,27.03 -7.926,4.196 -28.345,19.008 -37.788,27.41 -10.322,9.186 -22.797,22.346 -26.885,28.362 -1.324,1.949 -2.783,3.697 -3.24,3.885 -1.519,0.625 -13.924,19.235 -17.226,25.843 -1.787,3.575 -4.071,7.665 -5.076,9.09 -1.005,1.424 -2.808,5.249 -4.006,8.5 -2.681,7.27 -3.579,8.451 -6.286,8.259 -1.17,-0.083 -10.902,-0.509 -21.627,-0.947 z m -268,-46.457 c -4.125,-1.27 -12.9,-3.945 -19.5,-5.944 -25.258,-7.652 -40.339,-12.471 -49.5,-15.82 -5.225,-1.91 -14.675,-5.35 -21,-7.644 -6.325,-2.294 -12.738,-4.635 -14.25,-5.202 -1.513,-0.567 -2.76,-1.549 -2.772,-2.183 -0.012,-0.634 -0.003,-38.946 0.022,-85.138 0.035,-67.75 0.296,-84.239 1.35,-85.293 1.742,-1.742 111.222,-1.821 113.318,-0.082 1.093,0.908 1.332,19.679 1.332,104.924 0,57.1 -0.338,104.015 -0.75,104.255 -0.413,0.24 -4.125,-0.603 -8.25,-1.873 z"
   style="fill:#fcc62f;fill-rule:nonzero"
   id="path13"
   inkscape:connector-curvature="0" />
            </g><g
     id="path823"
     transform="matrix(1.57352,0,0,1.4398,327.596,67.7596)">
                <path
   style="fill:#fab91f;fill-rule:nonzero"
   d="m 456.763,109.873 c -1.82,0.012 -1.963,0.2 -0.75,0.984 1.939,1.253 3,1.253 3,0 0,-0.55 -1.013,-0.992 -2.25,-0.984 z"
   id="path910" /><path
   style="fill:#fab91f;fill-rule:nonzero"
   d="m -183.545,169.195 c -0.266,0.026 -0.443,0.239 -0.443,0.603 0,0.583 0.451,1.059 1.001,1.059 0.55,0 1,-0.198 1,-0.441 0,-0.242 -0.45,-0.719 -1,-1.059 -0.206,-0.127 -0.398,-0.178 -0.558,-0.162 z"
   id="path908" /><path
   style="fill:#fab91f;fill-rule:nonzero"
   d="m 702.42,208.543 c -0.66,-0.109 -1.125,1.247 -1.516,3.815 -4.165,27.346 -19.678,78.434 -34.922,114.997 -18.702,44.861 -48.365,95.822 -77.869,133.78 -4.18,5.378 -8.726,11.241 -10.101,13.03 -13.466,17.522 -59.839,65.225 -81,83.322 -22.691,19.406 -50.518,40.674 -72,55.031 -23.227,15.524 -54.941,34.274 -74.989,44.335 -5.421,2.72 -10.128,5.385 -10.461,5.924 -0.603,0.976 2.36,1.71 9.951,2.465 9.936,0.988 65.471,-0.298 75.499,-1.749 77.539,-11.219 142.918,-43.607 197.053,-97.619 45.989,-45.884 74.699,-96.606 91.425,-161.516 8.404,-32.615 11.633,-78.127 8.051,-113.501 -2.276,-22.47 -4.753,-35.886 -10.632,-57.603 -4.638,-17.133 -7.036,-24.469 -8.489,-24.711 z"
   id="path906" /><path
   style="fill:#fab91f;fill-rule:nonzero"
   d="m 658.161,227.314 c -0.036,-0.01 -0.08,0.001 -0.134,0.035 -0.488,0.301 -3.189,4.477 -6.005,9.278 -10.044,17.131 -11.209,18.857 -22.743,33.731 -2.132,2.75 -5.585,7.249 -7.673,9.999 -14.206,18.717 -55.127,57.775 -76.482,73.001 -2.314,1.65 -5.875,4.286 -7.91,5.858 -2.036,1.572 -9.1,6.582 -15.7,11.134 -44.591,30.753 -106.544,60.85 -164.001,79.674 -29.358,9.618 -53.433,16.519 -74.499,21.35 -6.325,1.451 -15.1,3.462 -19.5,4.47 -4.4,1.007 -11.825,2.579 -16.5,3.493 -12.291,2.404 -17.001,3.673 -17.001,4.579 0,1.455 17.635,16.998 25.633,22.593 19.33,13.522 42.288,23.836 68.367,30.716 8.185,2.159 10.017,1.967 18.626,-1.956 4.331,-1.973 9.9,-4.501 12.375,-5.616 8.598,-3.873 40.563,-20.062 51.499,-26.081 39.842,-21.93 76.623,-47.032 111.5,-76.098 14.785,-12.321 49.372,-46.202 57.824,-56.644 2.572,-3.177 8.104,-9.983 12.293,-15.124 4.19,-5.142 9.042,-11.374 10.783,-13.849 21.157,-30.076 33.089,-50.455 45.081,-76.999 7.533,-16.676 15.272,-37.251 14.167,-37.544 z"
   id="path904" /><path
   style="fill:#fab91f;fill-rule:nonzero"
   d="m -222.128,253.012 c -0.488,-0.006 -0.86,0.544 -0.86,1.346 0,0.916 0.484,1.505 1.076,1.308 0.591,-0.197 1.075,-0.786 1.075,-1.308 0,-0.523 -0.484,-1.111 -1.075,-1.308 -0.075,-0.026 -0.146,-0.037 -0.216,-0.038 z"
   id="path902" /><path
   style="fill:#fab91f;fill-rule:nonzero"
   d="m -221.892,373.382 c -0.595,0.044 -0.993,0.288 -1.279,0.737 -1.065,1.678 -1.037,69.485 0.03,70.144 0.465,0.288 4.628,0.77 9.25,1.074 4.622,0.304 13.353,0.999 19.403,1.545 6.05,0.546 16.175,1.165 22.5,1.373 25.341,0.833 58.586,2.875 60,3.684 2.149,1.229 2.71,1.119 3.394,-0.664 0.87,-2.267 0.721,-52.697 -0.159,-54.023 -0.404,-0.609 -3.659,-1.186 -7.234,-1.283 -3.575,-0.098 -8.189,-0.631 -10.252,-1.184 -2.063,-0.553 -6.562,-1.421 -9.999,-1.929 -9.804,-1.451 -20.276,-3.505 -32.75,-6.425 -6.325,-1.48 -16.45,-3.829 -22.5,-5.219 -10.769,-2.475 -22.07,-5.455 -27.947,-7.37 -1.071,-0.349 -1.862,-0.504 -2.457,-0.46 z"
   id="path900" /><path
   style="fill:#fab91f;fill-rule:nonzero"
   d="m 81.893,449.985 c -0.543,-0.006 -1.124,0.053 -1.611,0.18 -0.973,0.253 -0.42,0.478 1.23,0.498 1.651,0.02 2.447,-0.187 1.77,-0.461 -0.339,-0.137 -0.845,-0.21 -1.389,-0.217 z"
   id="path898" /><path
   style="fill:#fab91f;fill-rule:nonzero"
   d="m 74.954,466.858 c -0.582,0 -0.78,0.449 -0.441,0.999 0.34,0.55 0.816,1.001 1.058,1.001 0.243,0 0.442,-0.451 0.442,-1.001 0,-0.55 -0.476,-0.999 -1.059,-0.999 z"
   id="path896" /><path
   style="fill:#fab91f;fill-rule:nonzero"
   d="m 217.454,476.194 c -0.266,0.025 -0.441,0.241 -0.441,0.605 0,0.582 0.449,1.059 0.999,1.059 0.55,0 1.001,-0.199 1.001,-0.441 0,-0.243 -0.451,-0.719 -1.001,-1.059 -0.206,-0.128 -0.398,-0.18 -0.558,-0.164 z"
   id="path894" /><path
   style="fill:#fab91f;fill-rule:nonzero"
   d="m 190.954,602.857 c -0.583,0 -0.781,0.451 -0.441,1.001 0.34,0.55 0.817,1 1.059,1 0.242,0 0.441,-0.45 0.441,-1 0,-0.55 -0.477,-1.001 -1.059,-1.001 z"
   id="path892" /><path
   style="fill:#fab91f;fill-rule:nonzero;stroke-width:1.4398011"
   d="M 332.14648 1114.1523 L 242.60742 1115.0078 L 242.24219 1266.5938 L 241.875 1418.1738 L 245.11914 1419.4941 C 246.9045 1420.2212 254.18816 1420.6868 261.30078 1420.5312 L 274.23438 1420.248 L 275.30469 1414.4883 C 275.89357 1411.3207 276.26867 1389.448 276.13477 1365.8828 C 275.97495 1337.9133 276.40807 1322.5197 277.38281 1321.5449 C 279.47341 1319.4543 312.93026 1318.8524 316.64062 1320.8379 C 319.65845 1322.4533 335.47461 1345.1958 335.47461 1347.9199 C 335.47461 1348.7478 336.97573 1351.4303 338.80859 1353.8809 C 340.64146 1356.3314 344.48389 1362.2357 347.34766 1367 C 350.21142 1371.7657 353.89471 1377.2106 355.5332 1379.0996 C 357.1717 1380.9886 358.50977 1383.1738 358.50977 1383.957 C 358.50977 1385.5019 372.82883 1408.8061 378.25977 1416.1016 L 381.60742 1420.5957 L 399.8125 1420.4199 C 411.04152 1420.3119 418.21244 1419.6709 418.52344 1418.7422 C 418.80132 1417.9143 417.71033 1415.8259 416.10352 1414.0996 C 414.49526 1412.3747 412.55257 1409.3105 411.78516 1407.2891 C 411.0163 1405.269 404.55722 1395.0024 397.43164 1384.4746 C 390.30462 1373.9468 382.77839 1362.1377 380.70508 1358.2344 C 378.63176 1354.3296 376.51154 1350.812 375.99609 1350.416 C 375.48208 1350.0201 373.12885 1346.7823 370.76758 1343.2188 C 368.40486 1339.6551 364.8089 1334.4708 362.77734 1331.6992 C 358.69982 1326.1358 355.31054 1317.5458 356.46094 1315.6855 C 356.86696 1315.029 360.89596 1312.0602 365.41406 1309.0898 C 377.20748 1301.3351 397.49959 1280.6487 403.56836 1270.1914 C 406.42637 1265.2644 410.73975 1255.569 413.1543 1248.6465 C 417.25485 1236.8876 417.53826 1234.7326 417.49219 1215.8496 C 417.45187 1198.8888 416.99798 1194.7123 414.66406 1189.8789 C 413.13355 1186.7113 411.8599 1183.3638 411.83398 1182.4395 C 411.78359 1180.7319 408.043 1172.3734 403.24414 1163.2422 C 398.9017 1154.9821 381.35776 1136.6603 373.62891 1132.3164 C 369.66945 1130.0905 365.41247 1127.3955 364.16992 1126.3301 C 362.92593 1125.2632 355.21457 1122.0877 347.0293 1119.2715 L 332.14648 1114.1523 z M 936.95312 1114.3086 C 918.07876 1114.3374 917.48227 1114.6045 912.64453 1125.2734 C 910.37252 1130.2839 908.51563 1135.6041 908.51562 1137.0957 C 908.51562 1138.5873 906.64979 1143.9459 904.36914 1149.0039 C 902.08849 1154.0634 899.74574 1160.4706 899.16406 1163.2422 C 898.58094 1166.0138 897.50383 1169.0286 896.76953 1169.9414 C 896.03667 1170.8542 894.85281 1173.4464 894.13867 1175.7012 C 893.42453 1177.9559 891.73633 1182.7138 890.38867 1186.2773 C 889.03958 1189.8408 885.85016 1198.5878 883.29883 1205.7148 C 880.74606 1212.8419 876.23213 1225.1553 873.26758 1233.0742 C 870.30303 1240.9931 867.13415 1250.061 866.22852 1253.2285 C 865.32288 1256.3961 864.15197 1259.6572 863.625 1260.4707 C 862.79135 1261.7593 846.09517 1307.7001 839.83203 1325.9395 C 836.89196 1334.4991 833.11139 1338.5621 830.2793 1336.2109 C 828.00729 1334.3248 827.40192 1332.911 820.66797 1313.7012 C 818.16991 1306.5742 815.2883 1298.7995 814.26172 1296.4238 C 813.23514 1294.0482 811.25958 1288.5409 809.87305 1284.1855 C 808.48508 1279.8302 806.88913 1275.6181 806.32617 1274.8262 C 805.76465 1274.0343 803.80604 1268.529 801.97461 1262.5898 C 800.14462 1256.6507 797.87522 1250.1711 796.93359 1248.1914 C 795.99196 1246.2117 793.75144 1240.3797 791.95312 1235.2324 C 788.63438 1225.7254 787.24531 1222.0023 781.75391 1207.875 C 780.06214 1203.5196 777.30535 1195.9076 775.63086 1190.959 C 773.95637 1186.009 771.73434 1181.959 770.69336 1181.959 C 769.45657 1181.959 769.07388 1180.8367 769.58789 1178.7188 C 770.07454 1176.7174 767.30326 1167.2298 762.33594 1153.8828 C 757.91286 1142.0045 753.24627 1129.0473 751.96484 1125.0879 C 750.68342 1121.1284 749.13987 1117.2217 748.53516 1116.4082 C 747.00177 1114.345 716.16504 1113.6246 714.92969 1115.623 C 714.04277 1117.06 719.12973 1134.7857 721.36719 1138.0469 C 721.90999 1138.8388 723.47501 1143.0489 724.8457 1147.4043 C 728.45097 1158.8622 729.73051 1162.4864 735.26367 1176.9219 C 740.89474 1191.6136 747.06237 1208.687 753.20312 1226.5938 C 755.51113 1233.3248 760.20516 1245.9591 763.63477 1254.6699 C 767.06437 1263.3807 771.6571 1275.3655 773.83984 1281.3047 C 776.02402 1287.2439 778.5065 1293.7254 779.35742 1295.7051 C 780.20978 1297.6848 781.70299 1301.8949 782.67773 1305.0625 C 786.64151 1317.9473 792.40806 1334.2004 799.02539 1351.1367 C 803.70043 1363.1029 806.67818 1371.3741 812.23438 1387.8281 C 814.5035 1394.5448 817.33272 1402.0934 818.52344 1404.6016 C 819.71271 1407.1111 820.6875 1410.3998 820.6875 1411.9102 C 820.6875 1415.5255 823.58091 1419.1181 827.16602 1419.959 C 831.81226 1421.046 837.11905 1421.0041 838.88281 1419.8652 C 840.92589 1418.5449 843.97628 1411.5141 850.89453 1392.1719 C 853.86916 1383.857 859.70113 1367.981 863.85352 1356.8945 C 868.00735 1345.8081 872.0573 1334.1461 872.85352 1330.9785 C 873.64973 1327.811 874.90992 1324.0339 875.6543 1322.584 C 877.91623 1318.1868 891.23828 1282.357 891.23828 1280.6738 C 891.23828 1279.8099 892.4471 1276.846 893.92578 1274.0859 C 895.40446 1271.3258 897.10365 1266.799 897.70117 1264.0273 C 898.30013 1261.2557 900.91185 1253.8058 903.50781 1247.4707 C 906.10522 1241.1356 910.9065 1227.8537 914.17773 1217.9551 C 917.44753 1208.0565 921.02304 1198.0143 922.12305 1195.6387 C 927.28762 1184.486 950.24876 1120.1604 950.26172 1116.8086 C 950.27324 1114.5884 948.68895 1114.2913 936.95312 1114.3086 z M 101.49414 1114.3242 L 15.837891 1114.4199 L 15.837891 1147.4062 L 44.994141 1147.5527 C 61.030658 1147.6334 76.167871 1147.5914 78.632812 1147.459 C 88.456583 1146.9335 87.828125 1137.5119 87.828125 1285.4902 C 87.828125 1358.9474 88.260142 1419.4814 88.787109 1420.0098 C 90.272985 1421.4942 119.22624 1421.1436 120.16211 1419.6289 C 120.61853 1418.8903 120.99023 1358.4012 120.99023 1285.209 C 120.99023 1157.0653 121.08609 1152.0447 123.67773 1149.6992 C 126.04765 1147.5554 130.2168 1147.2806 158.57227 1147.4102 C 176.28327 1147.4922 191.58363 1147.5222 192.57422 1147.4805 C 193.89884 1147.4258 194.37305 1143.2704 194.37305 1131.7246 C 194.37305 1116.1848 194.34302 1116.0352 190.76367 1115.1367 C 188.77674 1114.6385 148.60447 1114.2724 101.49414 1114.3242 z M 1131.1016 1114.3496 C 1119.1166 1114.2963 1102.4597 1114.5307 1079.3926 1114.6387 L 999.94141 1115.0098 L 999.94141 1265.4707 C 999.94141 1348.2232 1000.3934 1417.0213 1000.9434 1418.3574 C 1001.862 1420.592 1008.1802 1420.7951 1079.6621 1420.916 C 1124.8589 1420.9938 1157.7201 1420.5004 1158.1895 1419.7402 C 1159.5587 1417.5244 1160.9357 1394.179 1159.9336 1390.1836 L 1158.9863 1386.4141 L 1098.2949 1386.4141 C 1043.843 1386.4141 1037.332 1386.1674 1034.9707 1384.0293 C 1032.5216 1381.8149 1032.3379 1378.3586 1032.3379 1334.832 C 1032.3379 1293.288 1032.6076 1287.7143 1034.7227 1285.3789 C 1036.9587 1282.9068 1040.8322 1282.748 1097.9434 1282.748 L 1158.7832 1282.748 L 1159.7852 1270.6934 C 1160.338 1264.0631 1160.3455 1256.6132 1159.8027 1254.1367 L 1158.8125 1249.6328 L 1097.959 1249.6328 C 1040.1336 1249.6328 1036.9833 1249.4971 1034.6465 1246.9141 C 1032.4306 1244.465 1032.1971 1239.7129 1032.3008 1199.0918 C 1032.3958 1161.598 1032.7778 1153.4309 1034.5703 1150.6953 L 1036.7266 1147.4043 L 1158.7012 1147.4043 L 1159.7188 1133.8242 C 1160.9599 1117.268 1167.0563 1114.5109 1131.1016 1114.3496 z M 1243.2402 1114.5938 C 1241.429 1114.5779 1239.4895 1114.5956 1237.5098 1114.6445 L 1223.1133 1115.0098 L 1222.7422 1266.1895 C 1222.5377 1349.3379 1222.6794 1418.1774 1223.0566 1419.168 C 1224.1264 1421.977 1363.9146 1421.7718 1366.25 1418.957 C 1367.3414 1417.6425 1367.7746 1411.7971 1367.5039 1402.041 L 1367.0938 1387.1328 L 1313.9141 1386.7539 C 1267.3221 1386.4228 1260.4159 1386.0881 1258.1641 1384.0508 C 1255.7337 1381.8508 1255.5898 1374.5293 1255.5293 1249.1602 C 1255.4803 1145.5752 1255.0769 1116.3417 1253.6875 1115.4375 C 1252.9532 1114.9609 1248.676 1114.6398 1243.2422 1114.5938 L 1243.2402 1114.5938 z M 563.80273 1115.0098 L 560.74023 1124.3691 C 559.05711 1129.5164 557.25557 1134.6989 556.73438 1135.8867 C 556.21317 1137.0746 554.20966 1142.5837 552.2832 1148.127 C 550.35675 1153.6702 547.39284 1161.7677 545.69531 1166.123 C 542.57094 1174.1413 535.92098 1192.754 528.20508 1215.0781 C 525.87836 1221.8092 522.73435 1229.9985 521.2168 1233.2812 C 519.69781 1236.5641 516.52688 1244.9882 514.16992 1252 C 508.3632 1269.2718 494.02275 1308.9729 483.82031 1336.0195 C 466.44478 1382.0773 458.93429 1404.0773 458.75 1409.4492 C 458.63626 1412.7809 457.72444 1414.8376 456.05859 1415.5215 C 454.67206 1416.0902 453.53906 1417.3928 453.53906 1418.418 C 453.53906 1420.7476 482.34415 1421.8337 486.41016 1419.6582 C 488.01266 1418.8001 491.51847 1411.7329 495.19141 1401.9609 C 498.55478 1393.014 502.54536 1382.6576 504.05859 1378.9473 C 505.57183 1375.2369 506.81055 1371.4469 506.81055 1370.5254 C 506.81055 1369.6025 509.40275 1362.42 512.57031 1354.5645 C 515.73788 1346.7075 518.33008 1338.7108 518.33008 1336.793 C 518.33008 1334.8766 518.88384 1332.9664 519.56055 1332.5488 C 520.23725 1332.1298 522.2573 1327.3939 524.05273 1322.0234 C 525.84817 1316.6544 527.96448 1311.452 528.75781 1310.4629 C 529.85206 1309.098 540.25737 1308.6621 571.84375 1308.6621 L 613.48633 1308.6621 L 617.02148 1312.1953 C 618.96522 1314.139 620.55664 1316.9183 620.55664 1318.3711 C 620.55664 1319.8239 621.87426 1323.5775 623.48828 1326.7148 C 625.10086 1329.8522 626.98961 1334.6874 627.68359 1337.459 C 628.37758 1340.2306 630.33424 1346.0606 632.0332 1350.416 C 633.73217 1354.7714 637.72624 1365.7858 640.9082 1374.8926 C 644.09017 1383.9993 647.8952 1394.0434 649.36523 1397.2109 C 650.83527 1400.3785 652.81587 1406.0903 653.76758 1409.9043 C 656.17061 1419.5294 658.6794 1420.7482 675.50781 1420.4746 C 683.16324 1420.3493 689.75403 1419.9198 690.1543 1419.5195 C 691.09449 1418.5793 686.95262 1400.5842 685.35156 1398.6562 C 684.1954 1397.2625 681.8982 1391.3813 677.47656 1378.4922 C 676.38951 1375.3246 673.47204 1367.2272 670.99414 1360.4961 C 668.51624 1353.765 665.27247 1344.6913 663.78516 1340.3359 C 662.29784 1335.9805 658.07877 1324.6453 654.41016 1315.1426 C 650.7401 1305.6399 646.88565 1295.273 645.8418 1292.1055 C 644.79938 1288.9379 639.92679 1275.3313 635.01562 1261.8691 C 630.10591 1248.407 624.77684 1233.5052 623.17578 1228.7539 C 621.57472 1224.0026 617.52075 1212.9862 614.16602 1204.2754 C 610.81128 1195.5646 606.92601 1185.1997 605.53516 1181.2402 C 594.54371 1149.9663 582.2372 1117.245 580.99609 1116.0039 C 580.52096 1115.5288 576.45754 1115.1102 571.9668 1115.0742 L 563.80273 1115.0098 z M 305.74805 1147.5957 C 338.2847 1147.7757 355.75512 1155.2763 370.87305 1174.9238 C 382.49513 1190.0259 387.14433 1214.2283 382.41602 1235.0176 C 379.6444 1247.2026 375.44609 1254.5706 365.1875 1265.2539 C 355.96845 1274.8545 350.23617 1278.5528 338.43555 1282.5137 C 330.31074 1285.2392 325.97712 1285.625 303.60547 1285.625 C 287.50128 1285.625 277.71059 1285.0744 277.12891 1284.1328 C 275.90219 1282.1473 275.93149 1150.3165 277.1582 1149.084 C 277.68373 1148.557 287.53021 1147.9141 299.03711 1147.6562 C 301.34367 1147.6044 303.5797 1147.5842 305.74805 1147.5957 z M 572.10547 1197.7695 C 574.97068 1197.7407 578.28904 1199.9545 579.24219 1203.9629 C 579.65973 1205.7209 582.04193 1212.6654 584.53711 1219.3965 C 587.03085 1226.1275 590.72163 1236.4925 592.74023 1242.4316 C 596.37142 1253.1207 598.29466 1258.0079 602.01367 1265.9844 C 603.77023 1269.7538 603.64851 1270.3276 600.56445 1272.8242 C 597.55383 1275.2632 594.58284 1275.5488 572.33789 1275.5488 C 546.98153 1275.5488 545.23276 1275.1926 544.04492 1269.7891 C 543.58994 1267.7186 545.92803 1260.2821 548.66797 1255.0801 C 549.38355 1253.7209 550.56196 1250.1564 551.28906 1247.1602 C 552.01616 1244.1639 554.04464 1238.1484 555.79688 1233.793 C 557.5491 1229.4376 560.81631 1221.3382 563.05664 1215.7949 C 565.29841 1210.2517 567.32791 1204.0989 567.56836 1202.1191 C 567.92399 1199.1747 569.87665 1197.7926 572.10547 1197.7695 z "
   transform="matrix(0.69453981,0,0,0.69454091,-225.98762,-47.061813)"
   id="path890" />
            </g><g
     id="path821"
     transform="matrix(1.57352,0,0,1.4398,327.596,67.7596)">
                <path
   d="m 349.513,665.243 c -7.591,-0.756 -10.554,-1.49 -9.951,-2.466 0.333,-0.538 5.04,-3.204 10.461,-5.924 20.048,-10.061 51.763,-28.811 74.99,-44.334 21.481,-14.357 49.308,-35.626 72,-55.033 21.161,-18.097 67.534,-65.799 81,-83.321 1.375,-1.789 5.92,-7.653 10.099,-13.03 29.504,-37.959 59.167,-88.919 77.869,-133.78 15.244,-36.564 30.758,-87.651 34.923,-114.997 1.251,-8.218 3.259,-4.024 10.006,20.895 5.879,21.718 8.355,35.134 10.63,57.605 3.582,35.374 0.354,80.884 -8.05,113.5 -16.725,64.91 -45.436,115.631 -91.425,161.516 -54.135,54.011 -119.513,86.399 -197.052,97.619 -10.029,1.451 -65.564,2.738 -75.5,1.75 z m -25.5,-128.018 c -26.079,-6.88 -49.038,-17.195 -68.368,-30.716 -7.998,-5.595 -25.632,-21.138 -25.632,-22.593 0,-0.906 4.709,-2.174 17,-4.578 4.675,-0.914 12.1,-2.487 16.5,-3.495 4.4,-1.007 13.175,-3.019 19.5,-4.469 21.066,-4.832 45.143,-11.731 74.5,-21.349 57.457,-18.824 119.409,-48.922 164,-79.675 6.6,-4.552 13.665,-9.563 15.701,-11.134 2.036,-1.572 5.595,-4.208 7.909,-5.858 21.355,-15.226 62.277,-54.284 76.483,-73 2.088,-2.75 5.54,-7.25 7.673,-10 11.534,-14.874 12.698,-16.6 22.743,-33.731 2.815,-4.802 5.517,-8.977 6.005,-9.278 1.738,-1.074 -6.257,20.295 -14.034,37.509 -11.992,26.544 -23.923,46.924 -45.08,77 -1.741,2.475 -6.594,8.706 -10.783,13.848 -4.19,5.141 -9.722,11.948 -12.294,15.125 -8.452,10.442 -43.038,44.321 -57.823,56.643 -34.877,29.065 -71.659,54.168 -111.5,76.098 -10.936,6.019 -42.902,22.207 -51.5,26.081 -2.475,1.115 -8.044,3.642 -12.375,5.616 -8.608,3.923 -10.44,4.115 -18.625,1.956 z"
   style="fill:#1c87d1;fill-rule:nonzero"
   id="path19"
   inkscape:connector-curvature="0" />
            </g><g
     id="path819"
     transform="matrix(1.57352,0,0,1.4398,327.596,67.7596)">
                <path
   d="m 356.513,664.887 c -6.05,-0.426 -12.489,-0.832 -14.309,-0.902 -1.99,-0.077 -3.056,-0.538 -2.673,-1.157 0.35,-0.566 5.071,-3.255 10.492,-5.975 47.465,-23.82 102.472,-61.034 146.983,-99.441 20.586,-17.763 60.782,-57.405 71.881,-70.89 13.233,-16.078 26.052,-32.513 31.187,-39.983 19.771,-28.764 23.263,-34.257 36.837,-57.933 7.472,-13.032 23.372,-45.401 29.643,-60.345 13.169,-31.386 25.655,-70.867 32.616,-103.132 1.807,-8.376 3.6,-14.901 3.985,-14.5 0.744,0.775 7.596,24.347 10.241,35.229 10.794,44.417 11.443,101.579 1.675,147.5 -10.1,47.48 -29.104,90.631 -56.845,129.074 -15.377,21.308 -29.986,37.615 -49.795,55.584 -52.811,47.903 -116.48,76.368 -191.918,85.805 -10.989,1.374 -46.627,2.008 -60,1.066 z"
   style="fill:#07719f;fill-rule:nonzero"
   id="path22"
   inkscape:connector-curvature="0"
   sodipodi:nodetypes="ccccccccccccccccc" />
            </g></g>
    </g>
</svg>