<?xml version="1.0" encoding="UTF-8"?>
<svg xmlns="http://www.w3.org/2000/svg" xmlns:xlink="http://www.w3.org/1999/xlink" width="111pt" height="129pt" viewBox="0 0 111 129" version="1.1">
<g id="surface1">
<path style=" stroke:none;fill-rule:nonzero;fill:rgb(93.267822%,14.385986%,17.166138%);fill-opacity:1;" d="M 18.921875 58.039062 L 18.921875 66.542969 L 27.425781 66.542969 L 27.425781 49.535156 L 18.921875 49.535156 Z M 18.921875 58.039062 "/>
<path style=" stroke:none;fill-rule:nonzero;fill:rgb(93.267822%,14.385986%,17.166138%);fill-opacity:1;" d="M 18.921875 24.023438 L 18.921875 41.03125 L 27.425781 41.03125 L 27.425781 32.527344 L 35.929688 32.527344 L 35.929688 41.03125 L 27.425781 41.03125 L 27.425781 49.535156 L 44.433594 49.535156 L 44.433594 24.023438 L 47.265625 24.023438 L 47.265625 15.519531 L 55.769531 15.519531 L 55.769531 24.023438 L 47.265625 24.023438 L 47.265625 32.527344 L 64.277344 32.527344 L 64.277344 7.015625 L 38.761719 7.015625 L 38.761719 24.023438 Z M 18.921875 24.023438 "/>
<path style=" stroke:none;fill-rule:nonzero;fill:rgb(93.267822%,14.385986%,17.166138%);fill-opacity:1;" d="M 24.589844 86.386719 L 16.085938 86.386719 L 16.085938 77.882812 L 24.589844 77.882812 Z M 16.085938 69.378906 L 7.582031 69.378906 L 7.582031 94.890625 L 16.085938 94.890625 L 16.085938 97.722656 L 7.582031 97.722656 L 7.582031 106.226562 L 24.589844 106.226562 L 24.589844 111.898438 L 7.582031 111.898438 L 7.582031 120.402344 L 33.09375 120.402344 L 33.09375 97.722656 L 24.589844 97.722656 L 24.589844 94.890625 L 33.09375 94.890625 L 33.09375 69.378906 Z M 16.085938 69.378906 "/>
<path style=" stroke:none;fill-rule:nonzero;fill:rgb(93.267822%,14.385986%,17.166138%);fill-opacity:1;" d="M 84.117188 49.535156 L 84.117188 41.03125 L 75.613281 41.03125 L 75.613281 7.015625 L 67.109375 7.015625 L 67.109375 49.535156 Z M 84.117188 49.535156 "/>
<path style=" stroke:none;fill-rule:nonzero;fill:rgb(93.267822%,14.385986%,17.166138%);fill-opacity:1;" d="M 95.457031 7.015625 L 95.457031 24.023438 L 86.953125 24.023438 L 86.953125 7.015625 L 78.449219 7.015625 L 78.449219 32.527344 L 95.457031 32.527344 L 95.457031 58.039062 L 92.621094 58.039062 L 92.621094 49.535156 L 84.117188 49.535156 L 84.117188 66.542969 L 103.960938 66.542969 L 103.960938 7.015625 Z M 95.457031 7.015625 "/>
<path style=" stroke:none;fill-rule:nonzero;fill:rgb(93.267822%,14.385986%,17.166138%);fill-opacity:1;" d="M 55.773438 86.386719 L 47.265625 86.386719 L 47.265625 111.898438 L 44.433594 111.898438 L 44.433594 69.375 L 35.929688 69.375 L 35.929688 120.402344 L 52.9375 120.402344 L 52.9375 111.898438 L 55.773438 111.898438 L 55.773438 94.890625 L 64.277344 94.890625 L 64.277344 111.898438 L 55.773438 111.898438 L 55.773438 120.402344 L 72.78125 120.402344 L 72.78125 86.386719 Z M 55.773438 86.386719 "/>
<path style=" stroke:none;fill-rule:nonzero;fill:rgb(93.267822%,14.385986%,17.166138%);fill-opacity:1;" d="M 95.457031 69.378906 L 67.109375 69.378906 L 67.109375 77.882812 L 75.613281 77.882812 L 75.613281 120.402344 L 103.960938 120.402344 L 103.960938 96.308594 L 95.457031 96.308594 L 95.457031 89.21875 L 103.960938 89.21875 L 103.960938 80.714844 L 86.953125 80.714844 L 86.953125 104.8125 L 95.457031 104.8125 L 95.457031 111.898438 L 84.117188 111.898438 L 84.117188 77.882812 L 103.960938 77.882812 L 103.960938 69.378906 Z M 95.457031 69.378906 "/>
<path style=" stroke:none;fill-rule:nonzero;fill:rgb(93.267822%,14.385986%,17.166138%);fill-opacity:1;" d="M 58.605469 107.644531 L 61.441406 107.644531 L 61.441406 99.140625 L 58.605469 99.140625 Z M 58.605469 107.644531 "/>
<path style=" stroke:none;fill-rule:nonzero;fill:rgb(93.267822%,14.385986%,17.166138%);fill-opacity:1;" d="M 7.582031 7.015625 L 7.582031 35.144531 L 28.121094 7.015625 Z M 7.582031 7.015625 "/>
</g>
</svg>
