<?xml version="1.0" encoding="UTF-8" standalone="no"?>
<!DOCTYPE svg PUBLIC "-//W3C//DTD SVG 1.1//EN" "http://www.w3.org/Graphics/SVG/1.1/DTD/svg11.dtd">
<svg width="100%" height="100%" viewBox="0 0 2500 1080" version="1.1" xmlns="http://www.w3.org/2000/svg" xmlns:xlink="http://www.w3.org/1999/xlink" xml:space="preserve" xmlns:serif="http://www.serif.com/" style="fill-rule:evenodd;clip-rule:evenodd;stroke-linejoin:round;stroke-miterlimit:2;">
    <g transform="matrix(1,0,0,1,-3156.81,-1263.58)">
        <g id="Plan-de-travail1" serif:id="Plan de travail1" transform="matrix(1.25,0,0,1,3156.81,1263.58)">
            <rect x="0" y="0" width="2000" height="1080" style="fill:none;"/>
            <g transform="matrix(0.8,0,0,1,-26.4383,18.6096)">
                <path d="M669.634,919.339C669.557,918.936 669.485,918.53 669.418,918.122C657.363,852.314 638.741,787.881 613.832,725.788L541.869,820.561C539.495,823.723 535.678,825.48 531.732,825.227C530.564,825.179 529.411,824.948 528.314,824.544C523.462,822.712 520.344,817.904 520.651,812.726L542.456,458.385C542.643,455.67 543.747,453.097 545.585,451.091C549.981,446.348 557.495,446.051 562.251,450.432L787.304,658.991L898.037,191.278C901.921,174.875 898.087,157.596 887.63,144.374C877.174,131.153 861.243,123.441 844.386,123.441L306.947,123.441C276.98,123.441 250.941,144.035 244.038,173.195C225.508,251.462 189.673,402.82 170.326,484.535C167.146,497.968 170.286,512.118 178.849,522.945C187.412,533.772 200.458,540.087 214.262,540.088C246.854,540.088 285.563,540.088 307.941,540.088C312.418,540.088 316.649,542.136 319.427,545.647C322.204,549.159 323.222,553.748 322.191,558.105C308.987,613.874 268.469,785.015 248.309,870.165C245.494,882.056 248.273,894.581 255.853,904.165C263.433,913.749 274.981,919.339 287.2,919.339L669.634,919.339ZM778.025,698.186L699.661,693.406C718.242,739.656 733.564,787.12 745.526,835.45L778.025,698.186ZM478.713,529.591C477.995,528.943 477.213,528.369 476.379,527.878C470.443,524.385 462.786,525.646 458.284,530.859L400.686,595.715C399.986,596.471 399.369,597.3 398.846,598.188C394.863,604.957 397.155,613.804 403.924,617.787C406.479,619.29 409.44,619.964 412.394,619.713C416.264,619.593 419.924,617.909 422.531,615.047L480.067,550.155C480.729,549.427 481.313,548.634 481.812,547.786C485.333,541.801 484.017,534.074 478.713,529.591ZM429.499,446.399L342.753,451.83C337.959,452.126 333.614,454.791 331.178,458.931C327.155,465.769 329.471,474.707 336.309,478.73C338.792,480.192 341.657,480.878 344.534,480.701L430.765,475.299C435.564,475.013 439.916,472.35 442.355,468.206C446.373,461.377 444.06,452.452 437.232,448.434C434.759,446.979 431.909,446.293 429.045,446.464L429.499,446.399ZM746.955,427.149L660.416,432.37C655.601,432.651 651.232,435.321 648.786,439.478C644.759,446.321 647.077,455.265 653.919,459.291C656.39,460.745 659.238,461.432 662.1,461.266L748.675,455.983C753.469,455.688 757.813,453.022 760.249,448.883C764.273,442.045 761.957,433.107 755.119,429.083C752.635,427.622 749.77,426.935 746.894,427.113L746.955,427.149ZM469.13,366.486L404.176,308.914C403.482,308.303 402.732,307.76 401.936,307.291C395.043,303.235 386.034,305.57 381.978,312.463C378.447,318.462 379.682,326.194 384.905,330.795L449.834,388.27C452.706,390.834 456.495,392.135 460.337,391.875C464.141,391.652 467.703,389.919 470.227,387.064C470.938,386.301 471.563,385.463 472.092,384.564C475.58,378.636 474.328,370.991 469.13,366.486ZM689.645,291.521C688.924,290.869 688.138,290.292 687.3,289.799C681.387,286.319 673.762,287.556 669.252,292.726L611.68,357.681C611.027,358.402 610.45,359.187 609.957,360.025C606.478,365.939 607.715,373.563 612.885,378.074C615.778,380.604 619.551,381.899 623.388,381.679C627.214,381.45 630.792,379.693 633.314,376.806L690.85,311.914C691.502,311.193 692.079,310.407 692.572,309.569C696.052,303.656 694.815,296.031 689.645,291.521ZM532.758,237.325C527.94,237.555 523.551,240.207 521.105,244.364C519.631,246.869 518.954,249.765 519.165,252.664L524.385,339.203C524.666,344.018 527.337,348.387 531.494,350.833C538.336,354.86 547.28,352.542 551.307,345.7C552.76,343.229 553.448,340.381 553.281,337.519L548.035,250.882C547.792,246.079 545.143,241.708 540.998,239.269C538.511,237.805 535.638,237.127 532.758,237.325Z"/>
            </g>
            <g transform="matrix(0.608831,0,0,0.761038,128.241,209.304)">
                <rect x="1133.11" y="8.471" width="120.938" height="601.891" style="fill-rule:nonzero;"/>
                <path d="M1647.25,621.938C1738.37,621.938 1802.97,582.372 1855.99,529.741L1786.54,431.919C1746.58,471.127 1698.78,500.626 1643.52,500.626C1550.54,500.626 1454.95,417.729 1454.95,310.561C1454.95,205.223 1547.18,119.328 1643.89,119.328C1695.8,119.328 1745.09,143.976 1786.16,184.309L1855.99,89.128C1792.88,28.25 1723.43,-2.731 1645.01,-3.851C1475.49,-3.851 1332.52,139.868 1332.52,309.79C1332.52,478.969 1473.62,621.938 1647.25,621.938Z" style="fill-rule:nonzero;"/>
                <path d="M2206.29,271.352C2220.83,271.352 2263.01,231.758 2263.01,167.885C2263.01,86.857 2195.08,8.471 2088.27,8.471L1924,8.471L1924,610.362L2151.4,610.362C2275.36,610.362 2339.18,516.674 2339.18,427.791C2339.18,331.063 2264.16,271.352 2206.29,271.352ZM2095.74,126.049C2123.76,126.049 2150.28,149.957 2150.28,183.951C2150.28,219.065 2122.27,243.72 2093.5,243.72L2044.56,243.72L2044.56,126.049L2095.74,126.049ZM2140.18,492.411L2044.56,492.411L2044.56,349.722L2139.81,349.722C2197.33,349.722 2221.23,384.461 2221.23,419.2C2221.23,465.517 2179.4,492.411 2140.18,492.411Z" style="fill-rule:nonzero;"/>
                <path d="M2582.3,8.448L2407.19,8.822L2407.19,610.362L2582.3,610.362C2776.83,610.362 2895.57,496.863 2895.57,310.186C2895.57,122.338 2776.83,8.075 2582.3,8.448ZM2583.05,489.774L2527.79,489.774L2527.79,128.313L2581.93,128.313C2701.03,128.336 2773.47,197.044 2773.47,309.814C2773.47,421.819 2701.41,489.769 2583.05,489.769L2583.05,489.774Z" style="fill-rule:nonzero;"/>
            </g>
            <g transform="matrix(1.20963,0,0,1.51203,-907.046,-50.9078)">
                <path d="M1426.57,559.185L1426.57,549.88L1464.8,549.88L1464.8,559.185L1451.47,559.185L1451.47,600.988L1464.8,600.988L1464.8,610.386L1426.57,610.386L1426.57,600.988L1439.9,600.988L1439.9,559.185L1426.57,559.185Z" style="fill-rule:nonzero;"/>
                <path d="M1541.93,608.025C1539.24,609.105 1536.64,609.907 1534.13,610.432C1531.61,610.957 1529,611.219 1526.28,611.219C1521.93,611.219 1518.08,610.579 1514.73,609.298C1511.38,608.017 1508.56,606.111 1506.26,603.581C1503.96,601.05 1502.22,597.91 1501.03,594.16C1499.84,590.41 1499.25,586.051 1499.25,581.082C1499.25,575.99 1499.89,571.461 1501.19,567.495C1502.49,563.529 1504.34,560.181 1506.75,557.449C1509.15,554.718 1512.08,552.635 1515.52,551.2C1518.96,549.765 1522.83,549.047 1527.12,549.047C1528.5,549.047 1529.81,549.078 1531.03,549.14C1532.25,549.201 1533.44,549.317 1534.61,549.487C1535.79,549.657 1536.98,549.88 1538.18,550.158C1539.38,550.436 1540.63,550.791 1541.93,551.223L1541.93,562.519C1539.31,561.284 1536.81,560.404 1534.43,559.88C1532.05,559.355 1529.89,559.093 1527.95,559.093C1525.08,559.093 1522.62,559.61 1520.59,560.644C1518.55,561.678 1516.88,563.128 1515.56,564.995C1514.25,566.862 1513.29,569.084 1512.67,571.661C1512.05,574.238 1511.75,577.07 1511.75,580.156C1511.75,583.428 1512.06,586.352 1512.69,588.929C1513.33,591.506 1514.31,593.689 1515.63,595.479C1516.96,597.269 1518.66,598.635 1520.73,599.576C1522.79,600.518 1525.25,600.988 1528.09,600.988C1529.11,600.988 1530.21,600.888 1531.4,600.687C1532.59,600.487 1533.79,600.224 1535.01,599.9C1536.23,599.576 1537.43,599.191 1538.62,598.743C1539.81,598.296 1540.91,597.84 1541.93,597.377L1541.93,608.025Z" style="fill-rule:nonzero;"/>
                <path d="M1653.08,610.386L1653.08,549.88L1672.62,549.88C1679.5,549.88 1684.66,551.084 1688.1,553.491C1691.54,555.899 1693.26,559.54 1693.26,564.417C1693.26,565.929 1693.08,567.402 1692.73,568.838C1692.37,570.273 1691.83,571.592 1691.09,572.796C1690.35,573.999 1689.42,575.064 1688.31,575.99C1687.2,576.916 1685.88,577.641 1684.37,578.166C1685.88,578.413 1687.33,578.899 1688.7,579.624C1690.08,580.349 1691.28,581.29 1692.31,582.448C1693.35,583.605 1694.16,584.971 1694.77,586.545C1695.37,588.119 1695.67,589.878 1695.67,591.822C1695.67,597.995 1693.6,602.632 1689.47,605.733C1685.33,608.835 1679.36,610.386 1671.55,610.386L1653.08,610.386ZM1681.41,566.407C1681.41,565.265 1681.23,564.231 1680.86,563.305C1680.48,562.38 1679.89,561.593 1679.07,560.945C1678.26,560.296 1677.2,559.795 1675.92,559.44C1674.64,559.085 1673.09,558.908 1671.27,558.908L1664.37,558.908L1664.37,574.925L1671.27,574.925C1673.12,574.925 1674.69,574.701 1675.97,574.254C1677.25,573.806 1678.3,573.189 1679.12,572.402C1679.94,571.615 1680.52,570.712 1680.88,569.694C1681.23,568.676 1681.41,567.58 1681.41,566.407ZM1672.34,601.081C1674.16,601.081 1675.76,600.849 1677.13,600.386C1678.5,599.924 1679.65,599.283 1680.58,598.465C1681.5,597.647 1682.2,596.683 1682.68,595.572C1683.16,594.461 1683.4,593.273 1683.4,592.007C1683.4,589.384 1682.42,587.332 1680.46,585.85C1678.5,584.369 1675.5,583.628 1671.46,583.628L1664.37,583.628L1664.37,601.081L1672.34,601.081Z" style="fill-rule:nonzero;"/>
                <path d="M1772.61,579.879C1772.61,584.847 1772.07,589.291 1770.99,593.211C1769.91,597.13 1768.33,600.44 1766.24,603.141C1764.16,605.841 1761.62,607.901 1758.63,609.321C1755.63,610.741 1752.21,611.451 1748.35,611.451C1745.02,611.451 1741.95,610.864 1739.14,609.691C1736.33,608.519 1733.91,606.675 1731.87,604.159C1729.83,601.644 1728.24,598.427 1727.1,594.507C1725.96,590.588 1725.39,585.897 1725.39,580.434C1725.39,575.465 1725.94,571.021 1727.03,567.102C1728.13,563.182 1729.71,559.872 1731.78,557.172C1733.85,554.471 1736.39,552.411 1739.42,550.991C1742.44,549.572 1745.87,548.862 1749.69,548.862C1753.03,548.862 1756.1,549.448 1758.9,550.621C1761.71,551.794 1764.13,553.63 1766.15,556.13C1768.17,558.63 1769.75,561.84 1770.89,565.759C1772.04,569.679 1772.61,574.385 1772.61,579.879ZM1736.78,580.064L1736.78,581.8C1736.78,582.34 1736.81,582.888 1736.87,583.443L1759.55,567.055C1758.47,564 1757.05,561.739 1755.27,560.273C1753.5,558.807 1751.41,558.074 1749,558.074C1747.27,558.074 1745.66,558.514 1744.18,559.394C1742.7,560.273 1741.41,561.623 1740.32,563.444C1739.22,565.265 1738.36,567.549 1737.73,570.296C1737.09,573.043 1736.78,576.298 1736.78,580.064ZM1761.22,580.249C1761.22,579.724 1761.2,579.192 1761.17,578.652C1761.14,578.112 1761.13,577.595 1761.13,577.101L1738.58,593.396C1739.57,596.39 1740.96,598.612 1742.75,600.062C1744.54,601.513 1746.62,602.238 1749,602.238C1750.73,602.238 1752.34,601.791 1753.84,600.896C1755.33,600.001 1756.63,598.65 1757.73,596.845C1758.82,595.04 1759.68,592.756 1760.29,589.994C1760.91,587.231 1761.22,583.983 1761.22,580.249Z" style="fill-rule:nonzero;"/>
                <path d="M1848.44,579.879C1848.44,584.847 1847.9,589.291 1846.82,593.211C1845.74,597.13 1844.15,600.44 1842.07,603.141C1839.99,605.841 1837.45,607.901 1834.46,609.321C1831.46,610.741 1828.04,611.451 1824.18,611.451C1820.85,611.451 1817.78,610.864 1814.97,609.691C1812.16,608.519 1809.74,606.675 1807.7,604.159C1805.66,601.644 1804.07,598.427 1802.93,594.507C1801.79,590.588 1801.22,585.897 1801.22,580.434C1801.22,575.465 1801.77,571.021 1802.86,567.102C1803.96,563.182 1805.54,559.872 1807.61,557.172C1809.67,554.471 1812.22,552.411 1815.24,550.991C1818.27,549.572 1821.69,548.862 1825.52,548.862C1828.86,548.862 1831.92,549.448 1834.73,550.621C1837.54,551.794 1839.96,553.63 1841.98,556.13C1844,558.63 1845.58,561.84 1846.72,565.759C1847.87,569.679 1848.44,574.385 1848.44,579.879ZM1812.61,580.064L1812.61,581.8C1812.61,582.34 1812.64,582.888 1812.7,583.443L1835.38,567.055C1834.3,564 1832.87,561.739 1831.1,560.273C1829.33,558.807 1827.23,558.074 1824.83,558.074C1823.1,558.074 1821.49,558.514 1820.01,559.394C1818.53,560.273 1817.24,561.623 1816.15,563.444C1815.05,565.265 1814.19,567.549 1813.56,570.296C1812.92,573.043 1812.61,576.298 1812.61,580.064ZM1837.05,580.249C1837.05,579.724 1837.03,579.192 1837,578.652C1836.97,578.112 1836.96,577.595 1836.96,577.101L1814.41,593.396C1815.4,596.39 1816.79,598.612 1818.58,600.062C1820.37,601.513 1822.45,602.238 1824.83,602.238C1826.56,602.238 1828.17,601.791 1829.66,600.896C1831.16,600.001 1832.46,598.65 1833.55,596.845C1834.65,595.04 1835.51,592.756 1836.12,589.994C1836.74,587.231 1837.05,583.983 1837.05,580.249Z" style="fill-rule:nonzero;"/>
                <path d="M1921.81,592.1C1921.81,595.402 1921.2,598.272 1919.98,600.711C1918.76,603.149 1917.06,605.162 1914.87,606.752C1912.68,608.341 1910.07,609.522 1907.04,610.293C1904.02,611.065 1900.72,611.451 1897.14,611.451C1893.96,611.451 1890.89,611.265 1887.92,610.895C1884.96,610.525 1882.03,609.907 1879.13,609.043L1879.13,597.794C1880.55,598.288 1882.03,598.751 1883.57,599.183C1885.12,599.615 1886.67,599.993 1888.23,600.317C1889.78,600.641 1891.34,600.896 1892.88,601.081C1894.42,601.266 1895.92,601.359 1897.37,601.359C1899.53,601.359 1901.37,601.173 1902.88,600.803C1904.39,600.433 1905.62,599.924 1906.58,599.275C1907.54,598.627 1908.23,597.856 1908.66,596.961C1909.1,596.066 1909.31,595.078 1909.31,593.998C1909.31,592.517 1908.89,591.274 1908.04,590.271C1907.19,589.268 1906.07,588.381 1904.68,587.609C1903.29,586.838 1901.71,586.144 1899.94,585.526C1898.16,584.909 1896.36,584.246 1894.52,583.536C1892.68,582.826 1890.88,582.023 1889.11,581.128C1887.33,580.233 1885.75,579.122 1884.36,577.795C1882.97,576.468 1881.85,574.887 1881,573.05C1880.15,571.214 1879.73,569 1879.73,566.407C1879.73,564.031 1880.16,561.778 1881.03,559.648C1881.89,557.519 1883.25,555.659 1885.1,554.07C1886.95,552.481 1889.33,551.215 1892.23,550.274C1895.13,549.333 1898.63,548.862 1902.74,548.862C1903.94,548.862 1905.2,548.916 1906.51,549.024C1907.82,549.132 1909.12,549.271 1910.4,549.441C1911.68,549.61 1912.92,549.811 1914.1,550.042C1915.29,550.274 1916.38,550.513 1917.37,550.76L1917.37,561.176C1916.38,560.806 1915.3,560.466 1914.13,560.158C1912.95,559.849 1911.74,559.579 1910.49,559.347C1909.24,559.116 1907.99,558.938 1906.72,558.815C1905.45,558.692 1904.25,558.63 1903.11,558.63C1901.1,558.63 1899.41,558.792 1898.02,559.116C1896.63,559.44 1895.49,559.887 1894.59,560.458C1893.7,561.029 1893.05,561.732 1892.65,562.565C1892.25,563.398 1892.05,564.324 1892.05,565.342C1892.05,566.608 1892.47,567.696 1893.32,568.606C1894.17,569.517 1895.29,570.334 1896.7,571.06C1898.1,571.785 1899.69,572.464 1901.47,573.097C1903.24,573.729 1905.06,574.408 1906.93,575.133C1908.8,575.859 1910.62,576.684 1912.39,577.61C1914.17,578.536 1915.76,579.662 1917.16,580.99C1918.56,582.317 1919.69,583.883 1920.54,585.688C1921.39,587.494 1921.81,589.631 1921.81,592.1Z" style="fill-rule:nonzero;"/>
                <path d="M1982.32,559.371L1982.32,610.386L1970.65,610.386L1970.65,559.371L1954.08,559.371L1954.08,549.88L1998.89,549.88L1998.89,559.371L1982.32,559.371Z" style="fill-rule:nonzero;"/>
                <path d="M2151.75,579.369C2151.75,584.06 2151.17,588.319 2150.01,592.146C2148.86,595.973 2147.05,599.237 2144.6,601.937C2142.14,604.638 2139.01,606.721 2135.18,608.187C2131.35,609.653 2126.77,610.386 2121.43,610.386L2106.06,610.386L2106.06,549.88L2123.97,549.88C2128.6,549.88 2132.66,550.459 2136.13,551.616C2139.6,552.774 2142.49,554.556 2144.81,556.963C2147.12,559.371 2148.86,562.426 2150.01,566.129C2151.17,569.833 2151.75,574.246 2151.75,579.369ZM2139.53,580.11C2139.53,576.839 2139.27,573.922 2138.74,571.361C2138.22,568.799 2137.33,566.631 2136.08,564.856C2134.83,563.082 2133.16,561.732 2131.06,560.806C2128.96,559.88 2126.35,559.417 2123.23,559.417L2117.45,559.417L2117.45,600.849L2122.45,600.849C2128.03,600.849 2132.28,599.183 2135.18,595.85C2138.08,592.517 2139.53,587.27 2139.53,580.11Z" style="fill-rule:nonzero;"/>
                <path d="M2217.26,610.386L2213.92,598.442L2192.81,598.442L2189.39,610.386L2178.09,610.386L2196.01,549.88L2211.93,549.88L2229.85,610.386L2217.26,610.386ZM2203.51,560.991L2195.54,589.137L2211.38,589.137L2203.51,560.991Z" style="fill-rule:nonzero;"/>
                <path d="M2285.45,588.952L2285.45,610.386L2273.87,610.386L2273.87,589.045L2254.2,549.88L2266.84,549.88L2275.72,568.583L2279.8,577.749L2283.87,568.305L2293.18,549.88L2305.31,549.88L2285.45,588.952Z" style="fill-rule:nonzero;"/>
            </g>
        </g>
    </g>
</svg>
