<svg id="Calque_1" data-name="Calque 1" xmlns="http://www.w3.org/2000/svg" viewBox="0 0 960 521.97"><defs><style>.cls-1{fill:#0071ce;}.cls-2{fill:#cfde00;}</style></defs><title>Plan de travail 1</title><path class="cls-1" d="M209.32,508.14H101A99.75,99.75,0,0,1,63.36,501a96.31,96.31,0,0,1-31-19.9,93.28,93.28,0,0,1-21-30.38,95.56,95.56,0,0,1-7.69-38.62,97.86,97.86,0,0,1,7.43-38.35,93.63,93.63,0,0,1,51.36-50.95,99.36,99.36,0,0,1,38.34-7.3,96.92,96.92,0,0,1,37.29,7.17,95.55,95.55,0,0,1,30.38,19.77A93.75,93.75,0,0,1,189,372.13a91.27,91.27,0,0,1,7.57,37.29,99.73,99.73,0,0,1-2.79,23.48,89.65,89.65,0,0,1-8.23,21.63,75.21,75.21,0,0,1-13.53,18,64.82,64.82,0,0,1-18.44,12.73v.53h55.72ZM100,484.26a68.8,68.8,0,0,0,28.26-5.71,65.73,65.73,0,0,0,22-15.65,70.84,70.84,0,0,0,14.19-23.49,82.19,82.19,0,0,0,5-28.92,74.67,74.67,0,0,0-5.17-27.87,68.18,68.18,0,0,0-14.47-22.56A68.65,68.65,0,0,0,100,339.36a67.12,67.12,0,0,0-27.47,5.57,69.19,69.19,0,0,0-21.89,15.13A70.12,70.12,0,0,0,36,382.48a71.36,71.36,0,0,0-5.31,27.47,82.16,82.16,0,0,0,5,28.92A72.18,72.18,0,0,0,50,462.5a66.31,66.31,0,0,0,50,21.76Z"/><path class="cls-1" d="M223.65,337.23a17.67,17.67,0,1,1,5.17,12.34A16.84,16.84,0,0,1,223.65,337.23Zm5.57,45.12h23.89V508.14H229.22Z"/><path class="cls-1" d="M288.4,382.35h22.29V402h.53a20.76,20.76,0,0,1,4.12-6.63,42.1,42.1,0,0,1,8.49-7.57,52.22,52.22,0,0,1,12.21-6.1,45.71,45.71,0,0,1,15.52-2.52q14.06,0,23.62,5.84t15.66,17.52A40.25,40.25,0,0,1,408.08,385a48.14,48.14,0,0,1,22.56-5.84q14.59,0,23.88,4.78a38.54,38.54,0,0,1,14.6,12.61,48.24,48.24,0,0,1,7.29,17.78,104.18,104.18,0,0,1,2,20.57v73.24H454.53V438.08a100.29,100.29,0,0,0-.93-13.8,31.94,31.94,0,0,0-3.85-11.68,22,22,0,0,0-8.23-8.1q-5.32-3-14.07-3.05-17.26,0-24.68,10.62t-7.43,27.33v68.73H371.46V442.32a134.3,134.3,0,0,0-.93-16.45A38.72,38.72,0,0,0,366.82,413a20.53,20.53,0,0,0-8-8.49q-5.17-3-13.93-3.05A31.43,31.43,0,0,0,332.58,404a29.23,29.23,0,0,0-10.48,7.56,36.7,36.7,0,0,0-7.17,12.87,57.58,57.58,0,0,0-2.65,18.44v65.28H288.4Z"/><path class="cls-1" d="M595.63,382.35h23.88v19.37H620q4.51-10.08,15.66-16.32t25.74-6.23a54.82,54.82,0,0,1,17.38,2.78,39.33,39.33,0,0,1,14.6,8.62,41.68,41.68,0,0,1,10,15q3.71,9.15,3.72,21.63v80.94H683.2V433.83a42,42,0,0,0-2.39-15,27.49,27.49,0,0,0-6.37-10.08,24,24,0,0,0-9.16-5.57,33.84,33.84,0,0,0-10.75-1.72,39,39,0,0,0-13.8,2.39,28.74,28.74,0,0,0-11.14,7.56,35.74,35.74,0,0,0-7.43,13.14,59.76,59.76,0,0,0-2.65,18.84v64.75H595.63Z"/><path class="cls-1" d="M749.81,403H722.74v-20.7h27.07V354.22q0-25.21,9.69-37.56t33.3-12.33q4,0,8.36.26a49.08,49.08,0,0,1,9.42,1.59l-2.66,21.23a34.42,34.42,0,0,0-6.63-1.86,42.7,42.7,0,0,0-6.9-.53q-6.63,0-10.62,2a15,15,0,0,0-6.23,5.71,22.39,22.39,0,0,0-2.92,8.89,93.36,93.36,0,0,0-.67,11.81v28.92h28.4V403H773.69V508.14H749.81Z"/><path class="cls-1" d="M820.13,445.25a64,64,0,0,1,5.17-25.74,67,67,0,0,1,14.2-21,67.57,67.57,0,0,1,95,0,67.11,67.11,0,0,1,14.19,21,64,64,0,0,1,5.17,25.74,65.44,65.44,0,0,1-19.37,46.84,67.38,67.38,0,0,1-21.23,14.06,68,68,0,0,1-73.77-14.06,65.41,65.41,0,0,1-19.37-46.84Zm25.47,0a51.48,51.48,0,0,0,2.92,17.65,39.58,39.58,0,0,0,8.23,13.8,38,38,0,0,0,13,9,46.52,46.52,0,0,0,34.5,0,38.07,38.07,0,0,0,13-9,39.92,39.92,0,0,0,8.23-13.8,54.86,54.86,0,0,0,0-35.3,39.92,39.92,0,0,0-8.23-13.8,38.19,38.19,0,0,0-13-9,46.52,46.52,0,0,0-34.5,0,38.09,38.09,0,0,0-13,9,39.58,39.58,0,0,0-8.23,13.8A51.45,51.45,0,0,0,845.61,445.25Z"/><polygon class="cls-2" points="285.04 15.08 625.68 56 625.68 270.35 298.94 309.74 285.04 15.08"/><circle class="cls-1" cx="478.77" cy="174.57" r="50.46"/><polygon class="cls-1" points="451.6 248.72 568.62 232.5 626.55 349.52 484.04 376.17 451.6 248.72"/><path class="cls-1" d="M536.44,382.35h23.89V508.14H536.44Z"/><path class="cls-2" d="M530.88,337.23a17.67,17.67,0,1,1,5.17,12.34A16.84,16.84,0,0,1,530.88,337.23Z"/></svg>